<svg xmlns="http://www.w3.org/2000/svg" viewBox="0 0 1494.83 1494.83"><defs><style>.cls-1{fill:#8d99ae;}.cls-2{fill:#fff;}</style></defs><g id="Warstwa_2" data-name="Warstwa 2"><g id="Dobryszyce"><path class="cls-1" d="M689.71,1456.83c-64.94,0-101.06-11.17-146.79-25.31-47.44-14.66-106.47-32.91-223.38-47.08-46.67-5.65-143.79-17.43-187.86-86.1a76.69,76.69,0,0,1-7-13.86c-22.2-56.87,7.57-130.92,88.48-220.1,59.62-65.7,84-113.93,79.15-156.37-4.27-37.14-32.36-73.18-85.89-110.19-31-21.45-54.53-43.39-69.89-65.21s-23.26-44.47-23.32-67.1c-.12-48.73,35.3-97.23,108.31-148.27,20.34-14.23,33.3-19.57,47-25.22,14.4-5.94,29.28-12.08,56.72-30.64,47.4-32.05,75.55-62.82,79.26-86.62,2.41-15.45-.4-31.88-8.35-48.82l-.19-.4-.16-.42c-12.19-30.61-29.75-54.14-52.2-70-27.16-19.12-53.6-21.71-74.84-23.79-19.49-1.91-37.91-3.72-45.29-20.87-5.94-13.78-1.43-32.2,13.41-54.75C269.1,106.86,353.07,38,439,38a152.29,152.29,0,0,1,25.7,2.15c96.42,16.5,149.36,124.55,166.76,160,111.4,227.37,237.64,485,489.6,638.73,43.91,16.94,72.76,44.36,88.18,83.8,13.34,34.11,15,72.64,16.52,109.89,2.43,58.18,4.74,113.13,50,146.76,40.14,29.85,66.51,54,83,76.09,19.89,26.59,26.71,51.88,20.84,77.3-10.47,45.38-70.63,68.39-104.52,74.84a142.44,142.44,0,0,1-26.8,2.62c-21.32,0-38.81-5.17-57.32-10.65-13.73-4.06-27.92-8.26-45.61-11.06a196.48,196.48,0,0,0-31-2.58c-27.82,0-52.62,6.69-90.15,16.82-15.87,4.28-33.84,9.13-55.05,14.27-90.41,21.93-171.93,35-242.3,38.74C713.71,1456.47,701.22,1456.83,689.71,1456.83Z"/><path class="cls-2" d="M439,53a137.66,137.66,0,0,1,23.17,1.93C547.37,69.51,597,163.84,618,206.8c122.34,249.7,247.57,494.38,496.44,645.66,164.37,62.18,39.42,255,152.33,339,72.35,53.81,108.11,95,98.18,138-8.4,36.41-60.33,57.32-92.7,63.47a127.86,127.86,0,0,1-24,2.36c-33.85,0-57.63-14.73-100.57-21.52a211.6,211.6,0,0,0-33.35-2.77c-42.19,0-77.1,14.15-148.73,31.51-30.06,7.29-134.91,32.72-239.58,38.34-13.14.7-25.18,1-36.31,1-128.26,0-137.14-44.26-368.36-72.28-45.76-5.55-137.1-17.09-177-79.31a62.57,62.57,0,0,1-5.62-11.22c-19.72-50.53,8.65-119.73,85.62-204.56,103.05-113.57,123-197.51-9.32-289-137.1-94.8-96.13-178.14,15.16-256,40.2-28.1,49.12-18.92,103.54-55.72,76.49-51.73,84-85.9,85.68-96.74,3.72-23.86-3.57-44.67-9.58-57.5-9.62-24.14-26.48-54.81-57.5-76.66-54-38-106.11-17.71-115-38.33C222.87,171.14,332,53,439,53m0-30v0c-52.32,0-99,23.21-129,42.67-34.71,22.54-66.71,53.13-85.6,81.84-17.79,27-22.72,50.23-14.66,68.94,3.76,8.72,12.15,20.24,30.8,25.64,8.3,2.4,17.29,3.28,26.81,4.21,20.5,2,43.74,4.29,67.67,21.14,20,14.1,35.8,35.37,46.89,63.24l.33.82.38.81c6.66,14.19,9.05,27.7,7.11,40.14-.34,2.15-1.36,8.7-9.59,20.26-8.43,11.85-26.25,31.23-63.26,56.25-26.16,17.69-40.33,23.54-54,29.19C249,483.86,234.65,489.78,213,505c-35.49,24.81-61.85,48.48-80.61,72.36-22.7,28.92-34.17,58.61-34.1,88.24.07,25.76,8.83,51.23,26.05,75.69,16.61,23.6,40.69,46.14,73.63,68.91,49.76,34.41,75.77,67,79.52,99.57,2.15,18.71-2.65,39.14-14.66,62.44-12.27,23.78-32.12,50.65-60.7,82.14-40.48,44.62-68.93,86.26-84.54,123.77-17.29,41.51-19.58,79.14-6.8,111.86a91.35,91.35,0,0,0,8.32,16.51c21,32.73,55.3,57.33,102,73.13,37,12.53,74.39,17.06,96.71,19.76,115.58,14,173.9,32,220.76,46.52s84,26,151.21,26c11.78,0,24.54-.37,37.92-1.09,71.29-3.82,153.73-17,245-39.13,21.39-5.19,39.47-10.07,55.42-14.37,36.37-9.82,60.41-16.3,86.24-16.3a181.28,181.28,0,0,1,28.66,2.4c16.71,2.64,30.43,6.7,43.69,10.62,18.72,5.54,38.08,11.27,61.57,11.27a156.31,156.31,0,0,0,29.61-2.89c22.44-4.26,46.08-13,64.86-23.95,28.06-16.36,45.86-37.89,51.48-62.24a93.27,93.27,0,0,0-1.38-47.18c-4.07-14.17-11.29-28.07-22.07-42.49-17.39-23.25-44.74-48.4-86.07-79.14-39.48-29.36-41.53-78.48-43.92-135.34-1.61-38.49-3.28-78.29-17.53-114.73-8.26-21.12-19.72-38.73-35-53.83-16-15.75-36.3-28.52-60.42-38C880.29,673.93,755.27,418.79,644.94,193.6,632,167.25,613.79,132.9,587.18,101c-35.6-42.67-75.95-68.12-119.94-75.65A168.63,168.63,0,0,0,439,23Z"/></g></g></svg>