<svg xmlns="http://www.w3.org/2000/svg" viewBox="0 0 1494.83 1494.83"><defs><style>.cls-1{fill:#8d99ae;}.cls-2{fill:#fff;}</style></defs><g id="Warstwa_2" data-name="Warstwa 2"><g id="Gidle"><path class="cls-1" d="M802.46,1456.83c-29.75,0-62.68-5-100.67-15.2l-.16-.05c-48-13.5-84.07-39.79-104.2-76-19.84-35.72-23.31-78.8-10-124.58,41.9-144.35-25.42-245.92-96.7-353.46-36.61-55.24-74.47-112.36-95.91-175.45-4.87-14.31-9.58-29-14.14-43.25-34.43-107.47-66.95-209-189.08-256.48C167,402.78,153,386.44,149.9,363.79c-2.46-18.2,2.51-38,7.31-57.09,9.08-36.13,13.19-59.49-6.56-76.56A68.3,68.3,0,0,1,122,198.65c-9.34-21.05-5-40.47-2.5-48.32C139.23,74.74,177.08,38,235.22,38c31.52,0,64,10.6,95.48,20.86,24,7.84,46.75,15.24,65.77,16.69C448.22,79.48,504,91.61,557.63,110.61c53,18.75,104.13,44.25,148,73.74,57.6,38.74,116.48,56.79,185.3,56.79,64.23,0,128.08-15.64,195.66-32.2q12.09-3,24.23-5.91c25.17-6.07,48.53-9.16,69.43-9.16,42.44,0,74.93,12.86,94,37.18,14.7,18.77,14.94,40.44,1.52,136.34-6,42.77-10.81,71.5-15.06,96.84-4.3,25.6-7.7,45.82-10.69,71.27-4.38,37.38-4,53.22-3.67,71.56.34,16.7.73,35.63-2.6,73.33-5.23,59.13-13.52,95.47-20.17,124.66-8,35-13.75,60.26-11.38,107l.1,2.08c2.55,50.45,5,98.1,32,129.81,13.28,15.59,26.56,20.46,41.94,26.11,18.86,6.93,40.24,14.78,61.76,41.94,11,13.84,40.08,50.6,27.56,84.07-4.32,11.56-12.17,19.25-25.43,25-10.5,4.51-24.26,7.86-45.1,12.93-23.12,5.63-54.78,13.33-98.16,26.71-2.44.75-5,1.54-7.72,2.39-16.26,5.05-38.52,12-69.55,20.27-23.65,6.32-40.45,10.27-50.5,12.63q-4.5,1-7,1.66c-39.56,9.84-63.08,35.11-90.32,64.37-24.41,26.22-52.07,55.93-95.25,77C862,1451,834.5,1456.83,802.46,1456.83Z"/><path class="cls-2" d="M235.22,53c53,0,113.85,34,160.11,37.5,103.53,7.87,215.28,48,301.9,106.29,65.84,44.29,129.87,59.35,193.67,59.35,73.92,0,147.54-20.2,223.42-38.52,24.27-5.87,46.36-8.75,65.9-8.75,37.72,0,66,10.73,82.16,31.43,10.28,13.14,11.88,29.18-1.52,125-12.09,86.42-19.82,117.55-25.79,168.44-8.62,73.45.52,68-6.32,145.32-11.25,127.16-36.14,143.82-31.59,233.77,2.69,53.33,4.91,104.8,35.64,140.86,33.23,39,67.26,22.07,103.36,67.64,9.83,12.41,34.82,44,25.27,69.5-9.13,24.41-40.75,19.05-159.06,55.52-17.17,5.29-40.88,12.92-76.72,22.5-30.8,8.24-50.16,12.47-57.23,14.23-82,20.42-101.08,99.75-188.53,142.48-20.5,10-45.47,16.26-77.43,16.26-26.84,0-58.6-4.41-96.77-14.69-93.14-26.18-127.69-99.92-103.87-182,66.46-229-131.65-358-192.81-537.91-40.54-119.27-65.79-252-212-308.89-82.49-32.08,24.48-129.47-37.85-180.66a52.6,52.6,0,0,1-25.28-63.18C154.45,75.38,192.24,53,235.22,53m0-30c-31.07,0-57.66,9.65-79,28.68-23.13,20.6-39.85,51.52-51.12,94.5-3.08,9.85-8,33.21,3.21,58.56a83.21,83.21,0,0,0,33.48,37.58c11.13,10.44,9.86,25,.89,60.72-5.14,20.5-10.47,41.7-7.62,62.75,2.64,19.58,13.65,46,51.12,60.54,115.46,44.9,146.92,143.1,180.23,247.08,4.57,14.28,9.31,29.06,14.22,43.5,22.07,64.93,60.47,122.87,97.61,178.91,69.3,104.56,134.75,203.31,94.79,341-7,24.18-9.7,48-8,70.71a158.39,158.39,0,0,0,19.28,65.35c22.11,39.79,61.27,68.55,113.25,83.16l.16,0,.16,0c39.28,10.58,73.48,15.72,104.57,15.72,34.37,0,64-6.32,90.6-19.31,45.67-22.31,74.34-53.11,99.64-80.28,26.66-28.64,47.72-51.27,83-60,1.5-.37,3.84-.92,6.8-1.61,10.12-2.38,27.07-6.36,50.94-12.74,31.3-8.38,53.73-15.34,70.1-20.43l7.7-2.39c43-13.24,74.36-20.88,97.3-26.46,21.57-5.25,35.82-8.72,47.48-13.74,16.86-7.26,27.84-18.21,33.55-33.49,15.48-41.4-17.46-83-29.86-98.63-24.13-30.47-48.64-39.47-68.34-46.71-15-5.52-25-9.17-35.7-21.76-23.71-27.82-26-73-28.41-120.83l-.1-2.09c-2.26-44.69,3.31-69.12,11-102.93,6.76-29.64,15.17-66.53,20.49-126.68,3.41-38.51,3-57.88,2.65-75-.37-17.79-.68-33.15,3.58-69.51,3-25.08,6.31-45.14,10.58-70.53,4.06-24.18,9.12-54.27,15.13-97.24,7.06-50.52,9.94-78.82,9.93-97.69,0-22.35-4.21-36.83-14.5-50-15.33-19.59-46.12-42.94-105.78-42.94-22.08,0-46.63,3.23-73,9.58-8.13,2-16.34,4-24.27,5.92-66.69,16.34-129.68,31.77-192.1,31.77C825.2,226.14,769,208.9,714,171.9c-44.87-30.18-97.2-56.26-151.34-75.43-54.91-19.44-112-31.85-165-35.88-17.22-1.31-39.09-8.44-62.25-16C302.79,34,269.12,23,235.22,23Z"/></g></g></svg>