<svg xmlns="http://www.w3.org/2000/svg" viewBox="0 0 1494.83 1494.83"><defs><style>.cls-1{fill:#8d99ae;}.cls-2{fill:#fff;}</style></defs><g id="Warstwa_2" data-name="Warstwa 2"><g id="Gomunice"><path class="cls-1" d="M980.2,1422c-18.67,0-37.51-11.86-49.58-31.07-16.37-16.09-32.91-32.64-49.2-49.22-31.33-31.88-50.27-52.21-62.8-65.67-18.28-19.62-23.19-24.9-35.44-33-38.42-25.4-77.43-31-136.47-39.61-20.25-2.94-37.39-4.36-52.41-4.36-8.65,0-15.44.46-21.43.87-4.81.33-9.35.64-13.94.64a84.44,84.44,0,0,1-10.26-.59v0a131.71,131.71,0,0,1-22.22-5.6c-7.79-2.74-77-28.79-109.36-100.25-11.67-25.79-10.66-40.88-9.68-55.48.9-13.33,1.83-27.12-7.63-54.91-3.65-10.72-5.73-14.49-11.93-25.69-6.45-11.67-17.25-31.21-37.69-73.25-2.58-5.29-4.8-9.9-6.74-14-10.58-22-12.15-25-17.61-30.4C312.14,826.87,298.9,824,280.56,820c-11.89-2.57-25.36-5.49-40.3-11.95-22-9.51-30.44-19.79-45.77-38.46-9.28-11.29-22-26.75-43-48.85-26.66-28-47.57-46.6-64.37-61.55-29.27-26.06-46.94-41.79-48.69-71.38,0-.24,0-.52-.07-.86-.87-9.77-3.51-39.51,40.33-84.32Q84.21,497,90,491c27.24-28.08,58.11-59.91,93.5-85.1,42.2-30.05,82.64-44.67,123.63-44.72h.17c33.55,0,48.76,10.84,66.38,23.38,15.18,10.81,34.06,24.26,74.24,36.29,51,15.29,92,16,124.89,16.63,39.59.72,70.85,1.29,88.81,30.1,10.79,17.3,10.18,35.21,9.59,52.53-.69,20.32-1.4,41.32,13.94,68.57,4.82,8.55,12.6,20,22.31,26.23l.1.07a60.57,60.57,0,0,0,32.71,9.14c16.36,0,33.67-5.67,50.07-16.4,79.59-52.06,115.24-115.11,109-192.75-6-74.75,5.15-124.26,35.14-155.81,16.16-17,31.22-19,56.16-22.41,20.27-2.75,48-6.51,93.73-19.32,52.87-14.83,76.81-22,90.17-37.08,14.82-16.71,19.63-36.58,23.87-54.11,5.07-20.92,10.31-42.55,32.53-50.68a45.89,45.89,0,0,1,15.87-2.72c17.34,0,37.17,9.14,50.52,23.29,12.91,13.68,18.51,31.12,17.12,53.3-1.13,18-6.46,37.18-12.64,59.39-6.89,24.79-14.69,52.88-17.22,83.38-8,97.22,39.92,190,119.37,343.74q6.48,12.57,13.23,25.63l2.74,5.31c21.47,41.48,48.18,93.1,31.87,148.41-6,20.47-15,31.48-23.66,42.12-8.18,10.06-16.65,20.46-24.3,41.84-9.78,27.36-9.84,50.06-9.89,70.08-.05,24-.11,46.71-21.48,60.64-9.28,6-19.38,8.86-31.8,8.86-8.23,0-16.92-1.18-27-2.54-5.84-.79-12.46-1.69-19.65-2.43a484.23,484.23,0,0,0-51.43-2.88c-44.46,0-81.17,6.76-109.11,20.09-68.25,32.56-94.61,110.12-101.07,133.12-8.44,30.09-19,67.54-8.28,109.7,1.08,4.29,2.34,8.48,3.67,12.91,5.21,17.33,11.12,37,4.69,61.66-8.08,31-24.37,49.83-45.88,53A43.77,43.77,0,0,1,980.2,1422Z"/><path class="cls-2" d="M1246.76,87.87c14.35,0,30,8.45,39.61,18.58,35.05,37.15-9.76,99.78-16.78,184.55-8.85,107.06,47.58,209.47,134.22,377.47,21.86,42.4,48.8,90.92,33.55,142.61-10.68,36.22-31.14,36.88-47.69,83.15-22.51,62.93,2.26,105.16-25.44,123.21-7.38,4.8-14.85,6.42-23.61,6.42-11.75,0-25.82-2.91-45.09-4.89a500.55,500.55,0,0,0-53-3c-34.76,0-79.07,4.14-115.57,21.55-77.26,36.86-104.39,126-109,142.61-8.77,31.26-20,71.39-8.39,117.43,5.53,21.87,15.2,41,8.39,67.11-1.73,6.65-10,38.47-33.55,41.94a28,28,0,0,1-4.19.31c-13.88,0-28.43-9.78-37.75-25.47-11.67-11.46-29.23-28.86-50.33-50.33-77.37-78.74-77.65-85.45-100.66-100.66-41.23-27.25-81.84-33.14-142.61-42-24.39-3.53-41.53-4.51-54.55-4.51-16.16,0-26,1.51-35.37,1.51a71.93,71.93,0,0,1-8.47-.48,124.52,124.52,0,0,1-19-4.9c-13.19-4.63-72.76-30.58-100.67-92.28-20.47-45.27,3.83-48.51-16.77-109.05-8.28-24.31-10.4-18.52-50.33-100.66-16.57-34.07-18.4-39.64-27.29-48.45-27-26.7-54.22-19.9-90.15-35.43-30.34-13.11-28.21-25.44-83.88-83.88C88.54,633,55.57,623.91,53.38,587c-.36-6.14-5.47-31.41,36-73.81C144.69,456.6,216,376.31,307.1,376.21h.16c56.07,0,49,32.88,136.31,59,113,33.85,179.58-.94,205.28,40.29C667.93,506.14,641,541,672,596.07c12.53,22.25,24.39,29.66,27.41,31.58a75.19,75.19,0,0,0,40.78,11.5c18.69,0,38.86-6.14,58.28-18.85,74.32-48.61,123.14-114.52,115.74-206.51-5.35-66.37,2.54-114.26,31.06-144.26,23-24.24,40.67-8.92,143.06-37.63,53.66-15.05,80.83-23,97.34-41.56,35-39.43,21.26-90,50.33-100.66a30.92,30.92,0,0,1,10.72-1.81m0-30a61,61,0,0,0-21,3.63c-14.13,5.17-24.91,15.27-32,30-4.75,9.84-7.26,20.22-9.92,31.22-4,16.6-8.18,33.77-20.53,47.69-10.52,11.87-34.36,18.95-83,32.59-44.69,12.53-71.86,16.21-91.69,18.89-26.26,3.56-45.23,6.12-65,27-18,18.94-29.74,42.88-35.89,73.2-5.25,25.93-6.34,56.72-3.33,94.14,5.77,71.66-27.67,130.22-102.25,179-14,9.12-28.43,13.95-41.86,13.95a45,45,0,0,1-24.64-6.79l-.11-.07c-7.47-4.76-14-15.16-17.3-20.95-13.28-23.57-12.66-41.6-12-60.69.63-18.65,1.35-39.79-11.86-61-10.66-17.1-26.33-27.83-47.92-32.83-15.76-3.65-33.18-4-53.35-4.33-32-.58-71.81-1.3-120.86-16-37.8-11.32-54.82-23.44-69.84-34.14-12.58-9-25.46-18.13-45.08-22.87v-3.29H307.1c-44.23.05-87.51,15.59-132.34,47.5-36.5,26-67.88,58.33-95.56,86.88-3.91,4-7.59,7.82-11.26,11.57-19.72,20.17-33.12,40.13-39.82,59.34-6.37,18.25-5.22,31.25-4.73,36.8,0,.19,0,.36.05.51,1,17.34,6.75,32.08,18,46.4,8.84,11.27,20.7,21.83,35.72,35.2,16.59,14.78,37.24,33.16,63.47,60.7,20.68,21.7,33.17,36.91,42.29,48,16.27,19.81,26.09,31.76,51.42,42.71,16.29,7,30.51,10.12,43.07,12.84,18.45,4,27.77,6.37,37.87,16.37,3.46,3.43,4.19,4.53,14.65,26.26,2,4.05,4.18,8.68,6.77,14,20.61,42.4,31.53,62.15,38.05,74,6,10.88,7.64,13.81,10.86,23.26,8.49,25,7.7,36.67,6.87,49.08-1.05,15.67-2.25,33.44,11,62.67,34.89,77.13,109.65,105.26,118.06,108.21,6.66,2.34,18,5.44,25.4,6.34v0a99.91,99.91,0,0,0,12.06.7c5.1,0,9.89-.33,15-.67,6-.42,12.27-.84,20.41-.84,14.3,0,30.73,1.37,50.25,4.2,59.08,8.57,94.74,13.74,130.36,37.28,10.46,6.92,13.89,10.47,32.73,30.7,12.59,13.51,31.61,33.94,63.08,66,15.94,16.23,32.14,32.44,48.18,48.23a87.62,87.62,0,0,0,24,24.58c11.62,7.83,24.54,12,37.35,12a58.33,58.33,0,0,0,8.57-.63c16.12-2.38,45.12-13.86,58.2-64.06,7.5-28.77.66-51.5-4.83-69.76-1.29-4.27-2.5-8.3-3.5-12.26-9.69-38.29-.19-72.12,8.19-102,4.28-15.27,28.91-93,93.08-123.63,25.54-12.19,61-18.63,102.65-18.63a471.2,471.2,0,0,1,49.89,2.8c7,.71,13.17,1.56,19.18,2.37,10.59,1.44,19.74,2.68,29,2.68,15.46,0,28.17-3.59,40-11.29,13.29-8.66,21.92-21.33,25.66-37.66,2.59-11.31,2.61-23.07,2.64-35.51,0-18.82.1-40.14,9-65.07,6.78-19,13.74-27.51,21.8-37.42,9.15-11.24,19.52-24,26.41-47.35,18-61.09-10.22-115.68-32.93-159.55-.91-1.77-1.83-3.53-2.73-5.29q-6.73-13.07-13.24-25.63C1339,477.75,1291.8,386.39,1299.49,293.47c2.41-29.09,10-56.45,16.73-80.6,6.13-22.07,11.92-42.91,13.15-62.47,1.67-26.55-5.26-47.66-21.18-64.54-12.77-13.53-35.61-28-61.43-28Z"/></g></g></svg>