<svg xmlns="http://www.w3.org/2000/svg" viewBox="0 0 1494.83 1494.83"><defs><style>.cls-1{fill:#8d99ae;}.cls-2{fill:#fff;}</style></defs><g id="Warstwa_2" data-name="Warstwa 2"><g id="Kamieńsk"><path class="cls-1" d="M1081.44,1456.83a23.08,23.08,0,0,1-3.63-.29c-5.41-.86-15-4.48-18.78-19-1.52-5.9-2-12.85-2.51-20.91-1.29-19.67-3.06-46.61-22.14-68.85-12.34-14.39-30.23-17.29-55.1-17.29-5.39,0-10.86.13-16.66.27s-12.08.28-18.28.28c-17.9,0-39-1-60-8.85-22.71-8.45-41.16-23.26-56.42-45.28-29.06-41.94-57.42-62.33-86.69-62.33-33.29,0-66.82,25.83-99.25,50.8-14.59,11.24-29.68,22.86-44.64,32-45.37,29.58-85.31,44-122.08,44-113.2,0-165.85-135.87-221.59-279.73-42.18-108.84-85.79-221.4-157.27-288-19.75-18.42-26.2-67.22-5.56-97.92,12.58-18.71,31.15-23.58,47.54-27.88,16.23-4.26,26.55-7.42,33.94-18.29,3.78-5.57,4-8.54,4.19-19.05.21-11.72.51-27.78,8.07-55.23,7.65-27.77,13.68-49.71,34-65.21,15.22-11.61,28.8-12,39.72-12.23,7.41-.19,13.26-.33,20.09-3.65,12.72-6.18,15.74-16.91,21.36-40.58,4.94-20.85,11.1-46.8,29.87-75.76,13.26-20.48,24.28-29.1,37-39.08,12-9.38,26.9-21.05,50-48.35,17.27-20.41,26.68-34.86,36.64-50.16,4-6.15,8.14-12.5,12.91-19.44l2.32-3.38C519.39,123.15,585.37,38,644.58,38a57.29,57.29,0,0,1,16.95,2.51c25.84,8,38.53,32.7,50.8,56.65,13.17,25.69,26.78,52.26,56.48,61.11a84.15,84.15,0,0,0,24.57,3.21c5.48,0,11-.33,16.26-.66,5.12-.32,10.42-.64,15.55-.64,12.92,0,29.53,1.87,43.3,16.5,10.6,11.25,12.61,22.77,14.39,32.93,1.48,8.48,2.88,16.48,9.08,27,11,18.73,31.47,34.87,50.81,40.16a68.48,68.48,0,0,0,18.4,2.69c23.62,0,50.47-14,115.62-51,35.82-20.33,66.2-30.64,90.31-30.64,19.73,0,35.67,6.61,47.38,19.65,18.51,20.59,24.82,55.58,19.31,107-3.31,30.9-4.07,63.05-4.79,94.14-2.34,99.47-4.75,202.31-88.61,288.19-18.5,19-39.2,46.62-32.76,70.84,5.2,19.55,27.86,35.55,65.52,46.27,21,6,48.85,30.07,104.27,78.05,22.32,19.31,47.61,41.21,78.14,66.84,26.53,22.27,62.86,52.78,61,92.13-1.11,23.09-10.71,37.52-18.57,45.56-9.61,9.82-22,16.09-36.84,18.61a65.08,65.08,0,0,1-11,.94c-19.13,0-37.12-8.54-63.64-24.31-23.6-14-38.34-24.64-49.1-32.39-15.44-11.12-20.37-14.39-31-15.72a69.28,69.28,0,0,0-8.57-.5c-10.53,0-25.56,2-37.38,11.59-31.29,25.35-23.63,90.61-15.31,112.3l.47,1.18a171.75,171.75,0,0,1,10.11,34.95c.88,5,1.3,9.35,1.74,13.92.39,4.1.8,8.33,1.6,14,6.7,47-1.48,90.19-9.52,118.16-9.54,33.2-24.31,63.47-39.5,81C1100.32,1451.37,1091,1456.83,1081.44,1456.83Z"/><path class="cls-2" d="M644.58,53a42.44,42.44,0,0,1,12.54,1.84c44,13.53,42.22,98.38,107.4,117.81a99.48,99.48,0,0,0,28.85,3.83c11.44,0,22.09-1.3,31.82-1.3,12.39,0,23.28,2.12,32.38,11.78,14.7,15.61,5.95,30.94,21.47,57.26,13,22.09,36.51,40.64,59.77,47a83.85,83.85,0,0,0,22.36,3.22c28.05,0,57.91-16,123-52.92,29.84-16.94,59.14-28.68,82.9-28.68,37,0,60.52,28.44,51.78,110-13.82,128.87,16.33,265.36-89.22,373.45-62.82,64.33-47.18,117.39,39.38,142,25.43,7.23,74.36,55.88,176.87,141.95,26.91,22.59,57.14,48.63,55.64,79.92-.23,4.68-1.07,22.24-14.32,35.79-10.85,11.1-24.24,13.57-28.63,14.31a49.35,49.35,0,0,1-8.44.73c-14.84,0-30.22-6.89-56-22.2-56.47-33.58-60.74-47-85.89-50.1a84,84,0,0,0-10.44-.62c-11.89,0-31.18,2.26-46.82,14.93-38.07,30.85-29.82,103.4-19.87,129.33a160.32,160.32,0,0,1,9.81,33.35c1.5,8.55,1.49,15,3.26,27.4,13.93,97.76-38.78,198.72-62.79,198.72a8.82,8.82,0,0,1-1.27-.1c-17.15-2.73,3.48-59.56-34.4-103.74-16.78-19.57-40.35-22.52-66.49-22.52-11.28,0-23,.55-34.94.55-36.65,0-74.62-5.2-104.06-47.67-35.24-50.86-68-68.78-99-68.79-54.85,0-104.16,56.08-151.89,85.08-44.39,29-81.83,41.66-114.08,41.66C293,1326.3,276.57,921,106.66,762.57c-14.14-13.18-19.91-53.92-3.34-78.57,19.27-28.66,60.07-14.68,81.44-46.11,13-19.13.31-27.87,14.31-78.73,7.45-27,12.67-45.08,28.63-57.26,20.58-15.7,35.5-3.75,57.26-14.32,36.54-17.74,19.68-63.67,57.26-121.68,24-37.1,38.22-29.52,85.9-85.89,24.84-29.36,33.83-46.6,50.45-70.8C504.54,171.41,584,53,644.58,53m0-30C610.11,23,572.3,46.18,529,93.86c-31.42,34.59-58.36,73.88-72.83,95l-2.31,3.38c-4.88,7.09-9.07,13.52-13.12,19.74-10.12,15.55-18.86,29-35.52,48.67-22.09,26.11-35.74,36.79-47.77,46.21-13.25,10.37-25.76,20.16-40.39,42.74-20.18,31.14-26.94,59.64-31.88,80.45-5.49,23.15-7.48,27.72-13.31,30.56-3.75,1.82-7,2-13.92,2.15-11.69.29-29.36.74-48.44,15.3-24.33,18.56-31.62,45.08-39.35,73.15-8.06,29.27-8.39,47.12-8.61,58.93-.16,8.79-.22,8.87-1.59,10.9-4.21,6.18-10.29,8.26-25.34,12.21-17.07,4.48-40.45,10.61-56.19,34-11.37,16.92-16.65,39.16-14.86,62.61,1.75,23,10,42.87,22.64,54.65,69,64.28,112,175.2,153.51,282.47,28.08,72.45,54.6,140.88,88.46,193.37,19.34,30,39.46,52.2,61.5,68,26,18.56,54.78,28,85.62,28,39.71,0,82.27-15.14,130.08-46.28,15.59-9.51,30.94-21.34,45.8-32.78,30.43-23.44,61.9-47.68,90.07-47.68,24,0,48.33,18.28,74.38,55.88,16.83,24.27,38.2,41.36,63.52,50.79,23.32,8.68,47.09,9.79,65.2,9.79,6.38,0,12.61-.14,18.64-.29,5.7-.13,11.09-.26,16.3-.26,24.65,0,36.09,3.16,43.72,12,15.82,18.45,17.33,41.53,18.55,60.07.58,8.81,1.08,16.42,3,23.67,6.1,23.69,23.68,28.94,31,30.09a37.39,37.39,0,0,0,6,.48c13.93,0,27.37-7.36,40-21.86,16.8-19.36,32.32-51,42.58-86.66,8.45-29.38,17-74.82,10-124.43-.75-5.28-1.14-9.34-1.52-13.27-.45-4.66-.91-9.48-1.89-15.09a186.61,186.61,0,0,0-11-37.92l-.39-1c-3.16-8.23-7.4-28.43-6.13-50.36.7-12.24,3.83-34.35,16.88-44.92,8.85-7.17,21.3-8.24,27.93-8.24a56.92,56.92,0,0,1,6.7.38c6.86.86,9.42,2.44,24.1,13,11,7.91,26,18.75,50.2,33.12,28.14,16.73,48.83,26.41,71.31,26.41a81.34,81.34,0,0,0,13.48-1.15c22.44-3.82,36.88-14.57,45-22.92,9.68-9.89,21.5-27.52,22.83-55.32,2.25-46.78-37.37-80.05-66.31-104.34-30.44-25.56-55.69-47.41-78-66.7-57.1-49.42-85.76-74.23-110-81.13-31.37-8.93-51.46-21.94-55.12-35.69-3.56-13.39,7-34,29-56.51,39.74-40.69,65.57-88.75,79-146.92,11.51-50,12.72-101.53,13.89-151.39.72-30.79,1.47-62.63,4.72-92.9,6-55.85-1.56-94.64-23.07-118.58-14.47-16.1-34.71-24.62-58.54-24.62-27.11,0-59.08,10.66-97.71,32.59-61.35,34.83-88.32,49-108.22,49a53.82,53.82,0,0,1-14.44-2.16c-15.59-4.26-32.79-18-41.85-33.31-4.81-8.16-5.88-14.25-7.22-21.95-1.93-11-4.57-26.11-18.25-40.63-17.91-19-39.52-21.22-54.22-21.22-5.59,0-11.12.34-16.47.67s-10.32.63-15.35.63a69.85,69.85,0,0,1-20.28-2.58c-22-6.55-32.56-24.61-47.41-53.58-13-25.47-27.84-54.34-59.74-64.15A72.62,72.62,0,0,0,644.58,23Z"/></g></g></svg>