<svg xmlns="http://www.w3.org/2000/svg" viewBox="0 0 1494.83 1494.83"><defs><style>.cls-1{fill:#8d99ae;}.cls-2{fill:#fff;}</style></defs><g id="Warstwa_2" data-name="Warstwa 2"><g id="KobieleWielkie"><path class="cls-1" d="M1144.65,1256.8c-32.6,0-63.54-10.83-92-32.21-94.76-71.24-188.6-108.78-278.9-111.55-9.84-.31-19.51-.45-29.57-.45-22.44,0-42.66.76-60.49,1.44-15.55.58-30.24,1.14-44.42,1.14-43.52,0-83.75-5.24-138.64-30.79-3.29-1.53-6.68-3.17-10.26-4.91-22.5-10.9-50.49-24.46-91.51-29.33a182.49,182.49,0,0,0-21.92-1.38c-21.8,0-46.09,4.33-94.62,13.34q-16.74,3.11-31.9,6c-80.92,15.1-129.77,24.21-159.83,24.21-16.13,0-36-2.16-46.83-19-7.12-11.13-6.09-22.19-5-33.9,3-32.77,22.24-52.72,40.81-72,9.26-9.63,18.83-19.58,26.86-31.46,6.92-10.22,10.08-17.8,25.28-97.08,16.05-83.7,21.41-121.22,24-139.25,2.43-17,3-21,8.38-29.42,21.11-33,59.34-58.57,113.61-75.86,44-14,97.19-21.73,149.79-21.73a475.46,475.46,0,0,1,50,2.53c9.54,1,19.85,3.17,30.76,5.46,14.86,3.11,30.23,6.34,42.89,6.34,17.83,0,21.48-6.19,23.5-12,12.08-34.67,27.1-59.19,45.91-75,17.09-14.35,37-21.33,60.86-21.33,24.66,0,50.43,7.59,75.34,14.92,20.16,5.94,41,12.07,60.58,13.94,8.14.78,16.25,1.18,24.11,1.18,113.27,0,184.63-82.43,253.65-162.13,10.54-12.18,21.45-24.77,32.3-36.84,21.6-24,69.65-41.55,96.36-49.87,44.26-13.79,91-21.7,128.21-21.7,37.5,0,63.6,7.95,77.57,23.64,29.86,33.51,29.86,61.93,24.61,79.87-10.55,36-48.69,58.42-80.87,67.43-65.15,18.22-100.8,40.34-109,67.61s9.45,65.48,53.93,116.84c22.26,25.69,29.47,55,21.44,87.12-6.63,26.54-22.13,51-37.11,74.7-4.34,6.86-8.44,13.34-12.24,19.74-49.15,82.76-47,157.53,6.69,235.31,6.19,9,15.36,18.72,25.07,29,23.65,25.15,50.45,53.65,46.32,85.9-2.49,19.45-15.41,36.28-39.49,51.43-6.58,4.14-13.25,8.46-20.32,13C1260,1221.15,1204.92,1256.8,1144.65,1256.8Z"/><path class="cls-2" d="M1352,253c30.07,0,54.65,5.46,66.37,18.62,56.74,63.68-1.16,109.46-49.11,122.87-141,39.46-156.79,99.71-62.35,208.72,49.3,56.92.25,114-29.48,164.08-51.49,86.7-50.61,167.71,7.24,251.49,30.12,43.62,115.71,95.18,36.26,145.16-51.06,32.12-112,77.84-176.25,77.84-27.23,0-55.06-8.22-83-29.19-87.8-66-184.64-111.41-287.46-114.57-10.55-.32-20.53-.45-30-.45-42,0-74.64,2.58-104.9,2.58-42.36,0-80.07-5.07-132.31-29.39-23.61-11-56-29.56-106.33-35.53a196.4,196.4,0,0,0-23.68-1.49c-23.07,0-47.8,4.39-97.36,13.59-99.43,18.46-156.7,29.91-189,29.91-18.52,0-28.84-3.76-34.19-12.13-4.35-6.79-3.69-13.92-2.71-24.44,3.92-42.31,40.1-59.39,65.16-96.45,8.71-12.89,12.24-22.65,27.58-102.67,30.32-158.12,22.53-151.3,30.27-163.41,41.41-64.83,156.4-90.67,250.76-90.67a462.9,462.9,0,0,1,48.43,2.44c21.83,2.32,51.43,11.89,75.23,11.89,17.44,0,31.78-5.14,37.67-22,23.52-67.5,56-86.26,92.6-86.26,41.79,0,89,24.45,134.49,28.8q13.13,1.24,25.54,1.24c138.13,0,214.58-112.22,297.1-203.93C1168,286.86,1277.06,253,1352,253m0-30h0c-38.67,0-87,8.15-132.67,22.37-28.18,8.78-79,27.5-103,54.17-11,12.17-21.9,24.82-32.5,37.06-69.88,80.71-135.89,156.94-242.3,156.94-7.39,0-15-.37-22.68-1.11-18.14-1.73-37.39-7.4-57.78-13.4-25.93-7.63-52.74-15.52-79.57-15.53-27.15,0-50.87,8.36-70.51,24.84-20.93,17.58-37.43,44.26-50.42,81.54-.12.35-.23.59-.3.75-.79.34-3.32,1.17-9,1.17-11.11,0-25.7-3.06-39.81-6-10.8-2.27-22-4.61-32.26-5.7a492,492,0,0,0-51.59-2.61c-54.1,0-108.92,8-154.34,22.44-26.42,8.42-49.69,19-69.18,31.43-22.59,14.42-40.26,31.46-52.52,50.65-7.13,11.15-8.07,17.74-10.59,35.37C138.3,715.3,133,752.58,117,835.93c-14.77,77-17.72,83.73-23,91.5-7.31,10.81-16,19.87-25.25,29.46-19.41,20.17-41.41,43-44.93,81-1.15,12.43-2.59,27.9,7.31,43.37,6.34,9.92,15.54,17.08,27.34,21.3,8.93,3.19,19.14,4.67,32.12,4.67,31.45,0,80.81-9.21,162.58-24.47l31.89-5.94c47.61-8.84,71.4-13.09,91.89-13.09a167.84,167.84,0,0,1,20.15,1.28c38.51,4.57,65.24,17.52,86.73,27.93,3.64,1.76,7.08,3.43,10.47,5,57.39,26.72,99.46,32.19,145,32.19,14.46,0,29.29-.56,45-1.16,18.56-.7,37.75-1.42,59.91-1.42,9.91,0,19.44.14,29.11.44,87.16,2.68,178.12,39.2,270.36,108.55,31.08,23.37,65.06,35.22,101,35.22,29.46,0,60.28-7.83,94.23-23.94,27.93-13.26,54.45-30.43,77.85-45.58,7-4.54,13.65-8.84,20.15-12.93,27.72-17.44,43.33-38.37,46.38-62.21,2.4-18.78-3-37.74-16.49-58-9.61-14.41-21.9-27.48-33.78-40.11-9.31-9.91-18.11-19.26-23.66-27.3-50.67-73.37-52.56-141-6.14-219.13,3.7-6.22,7.74-12.61,12-19.37,14.89-23.54,31.78-50.21,39-79.09,9.28-37.14,1-71-24.66-100.58-22-25.35-37.2-47.51-45.31-65.87-6.67-15.11-8.5-27.16-5.59-36.83,6.41-21.35,40.53-41.22,98.67-57.49,36-10.08,79-35.78,91.22-77.65,6.33-21.58,6.64-55.42-27.8-94.07-9.62-10.79-23.42-18.63-41-23.29-13.47-3.56-29.53-5.37-47.74-5.37Z"/></g></g></svg>