<svg xmlns="http://www.w3.org/2000/svg" viewBox="0 0 1494.83 1494.83"><defs><style>.cls-1{fill:#8d99ae;}.cls-2{fill:#fff;}</style></defs><g id="Warstwa_2" data-name="Warstwa 2"><g id="Kodrąb"><path class="cls-1" d="M418.45,1414.57c-15.43,0-31.91-3-50.4-9.24-46.43-15.62-82-32.54-104.89-64.36-10-13.87-11.72-22.63-16.41-46-2-10.12-4.82-24-9.21-43-25.74-111.44-40.76-119-47.18-122.19-10-5-22.5-5.64-32.28-5.64-3.45,0-6.78.09-10,.17-5.48.15-11.14.65-17.13,1.18-8.14.71-16.55,1.46-25.83,1.46a144.63,144.63,0,0,1-29.86-3c-6.89-1.44-14.94-3.83-22.38-10.62-16.63-15.18-15.11-38.6-14.61-46.29,1.8-27.49,17.05-45.21,31.8-62.35,8.11-9.41,16.48-19.14,22.55-30.58,12.58-23.74,14.69-54.31,6.26-90.85l-.35-1.49,0-1.52c-1.6-67.23,29.89-120.63,60.34-172.28,6.13-10.39,12.47-21.14,18.37-31.75a319.28,319.28,0,0,0,34.69-105c4.11-28.84,2.91-50.07,1.85-68.81-1.51-26.53-2.8-49.44,12.48-77.82,10.49-19.47,26.61-37.7,45.38-51.33,21.46-15.57,44.49-23.8,66.59-23.8H339c2.6,0,5.07,0,7.46,0,23.4.05,40.31.09,71.65,16.43,0,0,1.61.81,6.05.81,14.28,0,33.94-8.08,38.2-14.11,99.06-140.42,240.5-183.58,390.25-229.28,15.89-4.85,32.31-9.86,48.59-15,2.42-.76,5.67-1.89,9.44-3.19C934,97.11,982.7,80.26,1040.12,80.26a282.91,282.91,0,0,1,47.45,3.95c22.26,3.79,81.39,13.88,94.6,55.11,5.72,17.86.82,35.92-1.56,42.86-6.26,18.26-17.2,26.46-26,33-5.46,4.09-9.78,7.32-13.22,12.77-6.27,9.91-4.19,18.91.35,35.28,4.92,17.69,11,39.72,1.11,67.6-2.49,7-4.5,9.78-8.16,14.89-4,5.65-11.59,16.17-28.39,44.24-17.59,29.4-19.26,34.9-19.06,41.23.54,16.83,14.44,30.22,23.64,39.07,18.25,17.56,44.75,26.85,63.78,31.54,16.41,4.05,26.5,4.61,35,4.61,3.79,0,7.55-.14,11.54-.27,4.48-.16,9.12-.32,14.37-.32a242,242,0,0,1,32,2.15l2.81.36c33.17,4.28,78.6,10.15,110.42,42,25.07,25.12,38.86,61.46,42.15,111.09,3.84,58.1,8.37,114.81,21.3,169.76,19,80.57,16.48,132.4-7.84,163.1-16.35,20.66-42.27,31.13-77,31.14-24.6,0-53.59-5-88.62-15.29a136.9,136.9,0,0,0-38.36-6c-45,0-80.68,27.36-112.37,86.13-42.93,82.79-90.87,140.56-146.55,176.6-45.6,29.52-96,43.87-154,43.87-45.28,0-89.26-8.69-128.06-16.37-32.19-6.36-62.6-12.37-88.3-12.37-39.62,0-63.27,14.64-79.08,49-12.62,26.92-26.22,46.47-41.61,59.85C464.36,1406.61,442.84,1414.56,418.45,1414.57Z"/><path class="cls-2" d="M1040.12,95.26A267.21,267.21,0,0,1,1085.05,99c19.75,3.37,72.41,12.35,82.84,44.91,4.65,14.51-.29,30-1.47,33.41-8.26,24.1-26.08,24.3-37.69,42.66-20.3,32.09,16.61,59.2,0,105.87-4,11.14-4.33,4.71-35.29,56.46-17.92,29.95-21.53,38.34-21.18,49.41.73,22.92,17.84,39.4,28.23,49.4,7.65,7.37,27.66,24.7,70.58,35.29,16.72,4.13,28.07,5.05,38.57,5.05,8.41,0,16.27-.59,25.91-.59a227.63,227.63,0,0,1,30,2c32,4.15,75.49,9,104.55,38.12,22.86,22.9,34.8,56.38,37.79,101.48,3.82,57.68,8.48,116.18,21.67,172.21,25.47,108.21,15.24,175.8-70.25,175.8-22.62,0-50.5-4.73-84.4-14.69a151.18,151.18,0,0,0-42.58-6.57c-54.62,0-94.29,35.94-125.63,94.11-89.55,172.77-191.88,212.49-287.28,212.49-81.17,0-157.33-28.74-216.36-28.74-40.07,0-72.22,13.23-92.71,57.69-21.77,46.45-48.44,74.79-91.94,74.79-13.48,0-28.56-2.72-45.62-8.46-42.53-14.3-76.54-29.72-97.48-58.88-11.83-16.48-9.18-23-23.2-83.68-25.34-109.75-41.32-125.34-55.07-132.23-12.27-6.15-26.51-7.23-39-7.23-3.65,0-7.14.09-10.4.18-13.53.35-27.19,2.63-42.57,2.63a129.1,129.1,0,0,1-26.79-2.68c-4.58-1-10.3-2.42-15.34-7C51.67,1091.89,52.84,1074,53.23,1068c2.38-36.43,34.73-53.11,52.63-86.88,10.82-20.41,19-52,7.62-101.24-1.8-76.24,42.4-134.47,76.9-196.51a334.54,334.54,0,0,0,36.36-110c10.13-71.07-10.46-98.64,12.69-141.62,18.21-33.81,58.16-67.25,98.76-67.25h.68c27.18.25,41.2-1.45,72.32,14.77,3.32,1.73,7.84,2.51,13,2.51,17.65,0,42.51-9.19,50.45-20.46C581.16,210.26,739.07,175,905.7,122.7c18.56-5.82,70.44-27.44,134.42-27.44m0-30c-59.95,0-110.22,17.4-134.38,25.77-3.65,1.26-6.81,2.35-9,3C880.5,99.16,864.1,104.17,848.24,109,772,132.28,700,154.26,632.56,188.67c-36.84,18.81-68.78,39.57-97.65,63.47A466.27,466.27,0,0,0,450.6,343.3c-1.09.89-4.53,3.13-10.51,5.25a51.9,51.9,0,0,1-15.92,3.19l-.88,0c-33.52-17.12-53.6-17.17-76.79-17.22-2.35,0-4.79,0-7.35,0h-1c-25.29,0-51.36,9.22-75.4,26.66-20.56,14.93-38.24,34.94-49.77,56.36-17.3,32.11-15.82,58.18-14.26,85.78,1,18,2.18,38.48-1.72,65.84A304,304,0,0,1,164,669c-5.8,10.41-12.06,21-18.12,31.32-15.23,25.83-31,52.53-42.82,81.4-14,34-20.37,66.38-19.6,98.84l.07,3.06.69,3c7.6,32.93,6,60-4.89,80.45-5.28,10-12.75,18.64-20.66,27.82C43.1,1013,25.42,1033.52,23.3,1066a96.75,96.75,0,0,0,.82,22.34c2.41,14.63,8.85,27.09,18.64,36,10.17,9.28,21.07,12.48,29.43,14.22a158.92,158.92,0,0,0,32.92,3.31c9.94,0,19.08-.81,27.15-1.52,5.75-.51,11.19-1,16.21-1.12,3.14-.09,6.37-.17,9.6-.17,7.5,0,18.31.42,25.57,4.06,1,.48,4,2,9.59,13.71,8.89,18.49,18.88,51.61,29.69,98.44,4.35,18.83,7.11,32.56,9.12,42.59,4.72,23.52,7.09,35.33,18.94,51.83,25.19,35.08,63.1,53.29,112.29,69.83,20,6.74,38.09,10,55.18,10,28.11,0,52.94-9.2,73.8-27.34,17.24-15,31.64-35.55,45.31-64.72l0-.09,0-.08c13.52-29.35,31.25-40.25,65.44-40.25,24.25,0,53.95,5.87,85.4,12.09,39.48,7.8,84.23,16.65,131,16.65,61,0,114-15.14,162.14-46.27,27.84-18,54.36-41.84,78.8-70.77,25.88-30.62,50.39-68.11,72.86-111.42,37.8-70,74.66-78.14,99.11-78.14a121.8,121.8,0,0,1,34.13,5.36c36.42,10.7,66.79,15.9,92.85,15.9,39.56,0,69.42-12.39,88.77-36.82,15.39-19.44,23.14-45.07,23.67-78.35.43-26.66-3.82-58.55-13-97.5-12.68-53.85-17.14-109.87-21-167.32-3.53-53.41-18.74-92.89-46.49-120.69-16.11-16.15-36.45-27.75-62.17-35.48-20.3-6.1-40.62-8.73-57-10.84l-2.8-.36a257.44,257.44,0,0,0-33.9-2.27c-5.51,0-10.5.17-14.9.32-3.84.14-7.48.27-11,.27-7.52,0-16.53-.51-31.38-4.17-17.24-4.26-41.12-12.53-57-27.78-7.9-7.6-18.71-18-19-28.74-.11-3.29,4.48-12.25,16.93-33.06,16.48-27.54,23.78-37.73,27.71-43.2,4.28-6,7.06-10.07,10.1-18.6,11.51-32.35,4.41-57.95-.78-76.64-4.37-15.74-4.69-19.21-2.13-23.25,1.88-3,4.42-4.95,9.53-8.78,9.33-7,23.43-17.56,31.19-40.19,2.86-8.35,8.75-30.16,1.66-52.3-16-49.91-81.65-61.1-106.37-65.32a298,298,0,0,0-50-4.16Z"/></g></g></svg>