<svg xmlns="http://www.w3.org/2000/svg" viewBox="0 0 1494.83 1494.83"><defs><style>.cls-1{fill:#8d99ae;}.cls-2{fill:#fff;}</style></defs><g id="Warstwa_2" data-name="Warstwa 2"><g id="Åadzice"><path class="cls-1" d="M186.42,1153.28c-13.56,0-30.5-1.16-53.95-2.77-42.33-2.91-59.83-4.11-70.62-12.78-20.27-16.31-27.69-46.14-22-88.65,4.24-31.9,15-63.85,23-81.51,19.07-42.46,36.28-64.59,73.65-94.72,73.28-59.09,104.17-149.62,134-237.18,5-14.76,10.25-30,15.57-44.86,17-47.42,39.45-82,68.62-105.62,29.44-23.87,65.88-36,108.3-36a288.23,288.23,0,0,1,60.12,6.9c22,4.73,46,7.81,69.15,10.79,54.28,7,110.41,14.19,153.19,43.14,47.84,32.36,90.83,48.76,127.8,48.76,61.25,0,110.41-43.66,154.7-137.41,21-44.52,42.27-68.09,68.88-76.44a74,74,0,0,1,22.23-3.4c21,0,39.44,8.47,57.22,16.66q4.37,2,8.73,4c60.29,26.79,108.21,27.82,146.72,28.65,41.43.88,77.2,1.65,103,36.47,17.35,23.41,25.55,56.69,20.9,84.8-2.59,15.58-8.93,27.26-18.34,33.76a31.23,31.23,0,0,1-18.1,5.58c-10,0-19.84-4.11-32.36-9.3-14.45-6-32.44-13.46-58.08-18.19-14.2-2.62-31.88-5.87-50.4-5.87-19.21,0-35.43,3.46-49.59,10.6-37.58,18.92-51.78,60.6-65.52,100.9s-32.6,95.6-7.27,139.71c15.21,26.52,45.06,49,62.89,62.38,5,3.72,9.69,7.05,14.27,10.28,19.13,13.47,35.65,25.1,40.08,47.43,5,25.24-9.65,46.82-14.47,53.91-24,35.41-61.59,42.1-109.13,50.57-24.13,4.3-51.47,9.17-81.93,18.58-45,13.89-71.69,30-95.28,44.15-30.45,18.31-56.74,34.12-107.7,39.15-9.48.93-19.08,1.41-28.54,1.41-30.63,0-61.69-5.11-87.46-14.39A162.51,162.51,0,0,1,717.46,1068c-5.21-3-10.61-6.2-18.79-10.06-9.62-4.54-60.22-27.21-111.26-27.21-23.5,0-43.85,4.79-60.5,14.25-17,9.67-25,21.53-32.75,33-9.84,14.61-21,31.18-48,35.89a74.84,74.84,0,0,1-13,1.15c-11.21,0-20.9-2.57-31.15-5.29-12.76-3.38-27.22-7.21-50-7.8-4.33-.12-8.58-.22-12.93-.22-11.88,0-26.31.68-43.23,5.69-18.61,5.5-27.43,12.5-36.78,19.92-10,7.92-21.31,16.9-42.57,22.73C208.23,1152.27,199,1153.28,186.42,1153.28Z"/><path class="cls-2" d="M1119,356.55c20.94,0,40.38,10.68,59.85,19.33,127.47,56.65,201.38,3.15,243.76,60.35,24.88,33.57,24.12,84.83,6.08,97.29a16.22,16.22,0,0,1-9.57,2.92c-16,0-39.5-18.36-87.72-27.24-14.59-2.69-33.23-6.12-53.12-6.12-18.45,0-38,2.95-56.34,12.2-43,21.68-58.61,67.33-73,109.46s-34.77,102-6.08,152c16.75,29.18,48.63,53.16,66.89,66.89,25,18.79,44.54,28,48.65,48.65,3.78,19.09-7.89,36.27-12.17,42.57-31.49,46.36-93.32,35.51-183.08,63.24-103,31.82-113,74.12-200,82.7-9.49.94-18.53,1.34-27.07,1.34-42.93,0-73.06-10.14-82.39-13.5-23.37-8.41-27-14.1-48.64-24.32-9.1-4.3-62.27-28.65-117.67-28.65-23.28,0-46.95,4.3-67.91,16.2-43,24.4-37,60.38-75.91,67.17a59.34,59.34,0,0,1-10.42.93c-21.64,0-37.85-12-80.79-13.09-4.35-.11-8.78-.22-13.32-.22-14.35,0-29.79,1.06-47.49,6.3-42,12.43-41.75,32.35-79,42.57-7.15,2-15.36,2.74-26.1,2.74-13,0-29.83-1.15-53-2.74-36.73-2.52-55.09-3.78-62.21-9.5-36.5-29.37-9.4-119.82,5.2-152.33,18.35-40.84,34.14-60.77,69.39-89.19,89.4-72.09,117.28-185.37,154.31-288.65,31.75-88.53,84.5-131.66,162.8-131.66q26.51,0,57,6.56c73.26,15.74,159.45,12.7,217.09,51.69,52.37,35.43,97.24,51.34,136.2,51.34,73.6,0,126.11-56.78,168.26-146,17.8-37.68,35.92-61,59.81-68.53a58.69,58.69,0,0,1,17.74-2.71m0-30a89,89,0,0,0-26.72,4.09c-39.66,12.44-62.5,51.61-78,84.34C972.83,502.87,928,543.8,873.21,543.8c-33.92,0-74.09-15.54-119.39-46.19C708.08,466.67,650.15,459.22,594.13,452c-23.91-3.08-46.51-6-67.91-10.58A303.33,303.33,0,0,0,463,434.21c-45.95,0-85.57,13.23-117.75,39.33-15.85,12.85-30.13,29-42.44,48.15-11.78,18.27-22.16,39.82-30.85,64-5.36,15-10.59,30.27-15.64,45.09C225.74,720.3,196.9,804.81,127,861.17,87.49,893,69.29,916.45,49.09,961.42,40.74,980,29.41,1013.6,25,1047.1c-2.64,19.81-2.59,37.52.14,52.65,3.87,21.46,13.07,38.17,27.36,49.67,14.46,11.63,33.34,12.92,79,16,23.76,1.63,40.93,2.81,55,2.81s24.42-1.18,34-3.81c24.21-6.63,37.36-17.06,47.92-25.44,8.88-7,15.9-12.61,31.71-17.29,15.09-4.47,28.17-5.07,39-5.07,4.16,0,8.31.1,12.54.21,21.06.55,34,4,46.58,7.31,10.73,2.85,21.82,5.79,35,5.79a89.74,89.74,0,0,0,15.58-1.37c33.3-5.81,47.49-26.9,57.85-42.3,7.38-11,13.74-20.41,27.71-28.34,14.36-8.15,32.23-12.29,53.1-12.29,47.83,0,95.74,21.47,104.86,25.78,7.58,3.57,12.46,6.42,17.62,9.44a177.68,177.68,0,0,0,33.68,16c19.36,7,51.13,15.27,92.54,15.27,9.95,0,20-.5,30-1.48,54.31-5.36,83.28-22.78,114-41.23,24-14.41,48.76-29.32,92-42.67,29.57-9.14,56.43-13.92,80.13-18.14,24.26-4.33,45.22-8.06,64.41-15.32,23.77-9,41.6-22.59,54.5-41.59,5.69-8.37,23-33.86,16.77-65.26-5.6-28.22-26.22-42.73-46.15-56.78-4.49-3.15-9.12-6.42-13.89-10-16.91-12.72-45.22-34-58.9-57.85-22-38.24-4.38-89.78,8.45-127.41,13.36-39.18,26-76.18,58.08-92.35,12-6.05,26-9,42.84-9,17.15,0,34.08,3.12,47.68,5.62,24.08,4.44,41.26,11.57,55.06,17.29,13.5,5.61,25.16,10.45,38.1,10.45a45.93,45.93,0,0,0,26.63-8.24c12.83-8.87,21.34-24,24.6-43.65,5.29-31.92-4-69.67-23.63-96.18-14-18.9-32-31-55.16-36.91-18.45-4.75-38.42-5.18-59.56-5.63-39.11-.84-83.43-1.79-141-27.36-2.79-1.24-5.58-2.53-8.54-3.89-18.36-8.45-39.17-18-63.5-18Z"/></g></g></svg>