<svg xmlns="http://www.w3.org/2000/svg" viewBox="0 0 1494.83 1494.83"><defs><style>.cls-1{fill:#8d99ae;}.cls-2{fill:#fff;}</style></defs><g id="Warstwa_2" data-name="Warstwa 2"><g id="LgotaW"><path class="cls-1" d="M938.73,1408.39c-25,0-50.56-6.45-83-14.62-54.64-13.78-92.69-31.12-123.26-45-4.87-2.22-9.59-4.38-14.23-6.44-79.09-35.31-126-43.2-157.06-48.42-32.38-5.44-53.77-9-76.23-37-15.13-18.87-62.92-92.72-42.37-250.77,15.88-122.13-78.08-176.31-177.55-233.67-44.85-25.86-91.23-52.6-126.78-86.08-5.75-5.4-11.51-10.71-17.08-15.84C91.7,643.31,63.83,617.65,49.1,586c-16.78-36.11-14.68-75,6.62-122.35q1.47-3.28,2.89-6.44c18.37-41.06,32.88-73.5,78.27-73.5,14,0,30.81,3.24,51.53,9.89,103.53,33.24,185.91,48.72,259.25,48.72,163.14,0,276.68-78.43,357.33-246.82,26-54.27,80.75-109,144.5-109,26,0,64.48,9.72,99.63,56,48.81,64.3,95.29,81.08,113,85.31a71.55,71.55,0,0,0,16.54,2c22.7,0,42.21-11.47,64.8-24.75,26-15.26,55.36-32.55,94-32.55a137.55,137.55,0,0,1,22.34,1.87c22.44,3.71,45.79,12.93,64.05,25.31,21.8,14.76,33.48,32.19,32.89,49.09-.68,19.64-17.15,29.29-22.56,32.46-10.59,6.2-24.87,11.42-41.41,17.48-31.36,11.47-74.31,27.19-118,59.36-1.19.89-119.57,89.21-114.37,175.89,2.39,39.86,29.82,79.29,83.86,120.54,7,5.36,68.54,53.49,68.48,94.21a34.79,34.79,0,0,1-14.23,28.61c-93,70.52-107.36,169.14-122.55,273.54-11.54,79.31-23.47,161.32-72.55,230.13-4,5.54-8,11.37-12.18,17.53-29.38,42.84-65.94,96.15-127.84,107.65A133.84,133.84,0,0,1,938.73,1408.39Z"/><path class="cls-2" d="M949.49,101.43c30.06,0,60.69,14.53,87.68,50.09,57.39,75.59,111.75,88.51,121.51,90.84a85.77,85.77,0,0,0,20,2.41c56,0,92.47-57.3,158.85-57.3a121.23,121.23,0,0,1,19.89,1.67c41.52,6.86,85.25,34.58,84.4,59.08-1.16,33.64-85.34,31-175.84,97.75-21.07,15.53-125.67,101.7-120.44,188.86,2.47,41.21,28.27,84.65,89.73,131.57,33.93,25.89,82.06,77.88,54.29,98.93-171.75,130.24-89,353.76-198.25,506.92-31.51,44.19-66.57,107.25-130.55,119.14a119.85,119.85,0,0,1-22,2c-22.5,0-46.23-5.83-79.3-14.17-61.78-15.58-100.94-35.42-135-50.64-159-71-189.32-33.28-227.7-81.14-19.1-23.81-57.78-96.61-39.2-239.44C482.3,817.18,259.88,780.2,148.56,675.39,82.77,613.46,23.14,572.62,69.4,469.77c19.68-43.75,29.92-71.09,67.48-71.09,12.29,0,27.51,2.93,46.94,9.17,91.6,29.41,180.7,49.44,263.84,49.44C597,457.29,727.15,392.73,818.51,202c26.35-55,77.78-100.52,131-100.52m0-30c-32.11,0-64.72,12.52-94.31,36.21-25.9,20.74-48.53,49.63-63.72,81.35-77.87,162.58-187.11,238.3-343.8,238.3-71.74,0-152.66-15.25-254.66-48-22.53-7.23-40.37-10.6-56.12-10.6-25.7,0-45.94,9.14-61.86,27.94-12.2,14.41-20.5,33-30.11,54.43q-1.39,3.15-2.87,6.41c-11.82,26.29-18,50.09-18.93,72.76A131.46,131.46,0,0,0,35.5,592.29c16,34.38,44.91,61,75.54,89.22,5.54,5.1,11.27,10.38,16.95,15.73,36.83,34.67,84,61.86,129.57,88.15,49.92,28.78,97.07,56,129.78,91.06,34.13,36.6,47,77.18,40.4,127.68-8.57,65.84-6.51,124.88,6.11,175.48,11.79,47.28,29.77,74.55,39.43,86.6,26,32.45,52.25,36.86,85.44,42.44,32.11,5.4,76.09,12.79,153.44,47.32,4.56,2,9.2,4.16,14.12,6.4,31.12,14.18,69.86,31.83,125.82,45.94,32.09,8.09,59.81,15.08,86.63,15.08a149.48,149.48,0,0,0,27.5-2.5c31-5.76,58.75-21.17,84.93-47.12,21-20.83,37.76-45.25,52.54-66.79,4.19-6.11,8.15-11.88,12-17.32,51.18-71.76,63.38-155.6,75.17-236.67,14.74-101.28,28.66-196.94,116.77-263.75a49.93,49.93,0,0,0,20.17-40.53c0-18.77-9.15-39-28.07-61.94a293.39,293.39,0,0,0-46.31-44.22c-49.66-37.91-75.9-74.76-78-109.51-2.17-36.33,22.53-74.71,43.64-100.5a399.72,399.72,0,0,1,64.67-62.42c41.92-30.91,82-45.57,114.2-57.36,17.22-6.3,32.09-11.74,43.84-18.62,8.24-4.82,14.59-10.15,19.41-16.27a48.73,48.73,0,0,0,10.57-28.61c.44-12.76-4.06-25.79-13-37.68-6.54-8.7-15.44-16.89-26.47-24.35-20-13.55-45.51-23.64-70-27.69a151.86,151.86,0,0,0-24.78-2.07c-42.78,0-74.06,18.39-101.66,34.62-20.7,12.17-38.58,22.68-57.2,22.68a55.45,55.45,0,0,1-13-1.59c-16.17-3.86-58.69-19.35-104.58-79.8-38.86-51.2-82.12-61.95-111.57-61.95Z"/></g></g></svg>