<svg xmlns="http://www.w3.org/2000/svg" viewBox="0 0 1494.83 1494.83"><defs><style>.cls-1{fill:#8d99ae;}.cls-2{fill:#fff;}</style></defs><g id="Warstwa_2" data-name="Warstwa 2"><g id="Masłowice"><path class="cls-1" d="M894.22,1456.83c-25.57,0-50.83-5.88-75.08-17.46-78.1-37.31-139.35-60.12-198.58-73.95-52.55-12.27-99-30.46-138.12-54.07-38.64-23.32-71.2-52.59-96.79-87-24.94-33.54-43.94-72.88-56.46-116.93-12.08-42.49-18.5-90.65-19.07-143.14C308.41,806.88,292.38,786,261.83,760.05c-43.5-36.94-100.1-38.19-145.58-39.19-39.6-.87-73.79-1.62-85-28.88C25.85,678.8,27,661,34,647.7c6.89-13,17.36-17.9,24.29-21.13,4.72-2.19,6.61-3.19,7.69-4.93,2.09-3.38-.72-9.93-5.6-20.32-6.57-14-14.74-31.38-8.59-51.68,5.75-19,20-26.84,31.38-33.13,10.3-5.67,16.26-9.29,19.14-17.73,2.46-7.21.81-12.48-2.85-22.76-3.74-10.49-8.39-23.55-6.85-41.76,2-23.72,13-43.54,40.64-73.11,35-37.54,60.87-52.72,81.62-64.92,15.41-9.06,26.54-15.6,37.24-28.74,30-36.78,24.38-86.59,19.46-130.53-4.46-39.86-8.67-77.51,20.27-93.47A45.51,45.51,0,0,1,314.08,38c24.09,0,51.74,15.87,86.74,36,35.51,20.39,72.22,41.47,89.27,83.26,5.72,14,8.67,30.46-2.15,127l-.63,5.58c-7.47,66-8.42,74.49,84.69,150.53l.52.42.47.46c9.41,9.18,19.13,18.66,28.61,28.15l.64.63.55.71c58.39,74.38,128.76,84.41,189.9,84.41h0c28.41,0,58.12-2.56,86.85-5,29.26-2.52,59.51-5.13,89-5.13a369.12,369.12,0,0,1,58,4.14c14.39,2.27,28.36,3.44,41.87,4.57,55,4.6,106.95,8.95,139.2,88.2,19.44,47.79,64.59,89.9,138,128.72,50.25,26.57,81.62,64.18,88.36,105.9,6.06,37.59-7.9,75.37-40.39,109.26-77.23,80.55-72.32,139.06-71.51,145.46,4.36,34.33,45.48,55.08,81.75,73.38,34,17.15,66.09,33.34,63,62.33-2,18.25-18.85,35.43-47.54,48.37-24.62,11.11-54,17.48-80.46,17.48-28.83,0-51.74-7.59-66.26-22-22.18-21.95-37.82-70-38-116.88-.07-14.12-3.58-26.19-12.13-41.67-11.28-20.41-28-32.37-36.93-37.69-14.1-8.36-39-18.13-62.73-18.13-17.06,0-31,5-41.34,14.73-24.37,23-19.14,62.48-17.88,70,11.78,38.43,15.63,72.38,11.77,103.75-4.41,35.85-19.33,68.65-44.36,97.5C996.83,1430.4,948.32,1456.82,894.22,1456.83Z"/><path class="cls-2" d="M314.08,53c20.09,0,46.57,15.2,79.27,34,34.23,19.65,67.74,38.9,82.85,75.92,4.19,10.27,7.61,23.49-3.17,119.69C464.7,357,460.46,368.64,562.52,452c9.53,9.31,19.07,18.61,28.47,28,58,73.85,128.2,90.15,201.7,90.15,58,0,118.11-10.16,175.85-10.16a357,357,0,0,1,55.63,4c73.95,11.67,133.46-5,169.51,83.61,24.84,61,83.34,103.78,144.89,136.33,87,46,109.06,123.81,44.15,191.51-72.26,75.38-78.31,136.06-75.56,157.74,9.62,75.72,149.23,90,144.68,132.21-2.89,26.87-62.84,52.46-113.08,52.46-22.53,0-43.1-5.14-55.71-17.62-20.09-19.88-33.39-65.09-33.58-106.28-.08-16.59-4.17-31.05-14-48.85-13.91-25.18-34.71-38.77-42.41-43.34-16.28-9.67-43.47-20.23-70.38-20.23-18.56,0-37,5-51.63,18.82-31.49,29.67-23.2,79-22.21,84.39,21,67.7,19.65,131.89-29.78,188.45-33.19,47.15-78.81,68.69-124.84,68.69a159.33,159.33,0,0,1-68.62-16c-65.93-31.5-132.45-58.87-201.63-75C416.81,1302.44,327.33,1167,325.12,964.1,323.4,806,307.54,779.19,271.54,748.62,187.33,677.1,62.28,728,45.14,686.29c-3.33-8.12-3.28-21.39,2.1-31.57,8.43-15.93,23.81-12.79,31.48-25.19,13-21-21.55-45.94-12.59-75.54,8.06-26.61,40.68-22,50.37-50.37,8.13-23.86-11.61-36.71-9-68.09,1.71-20.24,11.86-37.59,36.65-64.15,60-64.27,91.4-59.87,119.53-94.42,61.8-75.9-9.35-195.68,35.34-220.33a30.45,30.45,0,0,1,15-3.63m0-30h0a60.33,60.33,0,0,0-29.5,7.36,55.82,55.82,0,0,0-23.5,24.83c-4,8.15-6.39,17.47-7.32,28.52-1.39,16.57.69,35.2,2.9,54.91,4.58,41,9.78,87.5-16.19,119.4-9,11-18.63,16.71-33.21,25.28-20.45,12-48.45,28.48-85,67.61-24.87,26.63-42,50.78-44.62,82.09-1.82,21.44,3.66,36.82,7.66,48.05,3.35,9.42,3.51,10.76,2.78,12.89-1,2.85-2.79,4.26-12.18,9.43-12.33,6.8-31,17.06-38.5,41.92C29.6,571.11,40,593.13,46.79,607.7c.88,1.86,2,4.19,2.91,6.33-8,3.82-20.57,10.76-29,26.66-9.15,17.28-10.46,39.65-3.34,57,7.37,18,23.11,29.5,46.76,34.31,15,3.06,32.07,3.44,51.77,3.87,43.11.95,96.75,2.13,136.2,35.62,24.86,21.12,41.29,35.07,43,192.95.59,53.82,7.19,103.31,19.64,147.08,13,45.81,32.82,86.78,58.85,121.79,26.76,36,60.77,66.56,101.07,90.89s88.39,43.21,142.47,55.84c58.14,13.57,118.44,36,195.52,72.87,26.28,12.56,53.72,18.93,81.55,18.93a172,172,0,0,0,81.27-20.15c26-13.76,48.59-33.93,67.19-60,26.73-31,42.69-66.3,47.44-104.93,4.09-33.23.16-68.89-12-108.94-1.07-7.24-4.51-38.7,13.52-55.69,7.61-7.17,17.76-10.66,31-10.65,20.72,0,42.62,8.63,55.08,16,7.64,4.54,21.9,14.73,31.46,32,8.45,15.31,10.21,24.86,10.26,34.49.19,42.72,13.4,98.69,42.48,127.47,17.38,17.2,43.94,26.29,76.81,26.29,28.56,0,60.14-6.85,86.63-18.8,14-6.34,25.74-13.7,34.78-21.9,12.76-11.57,20-24.54,21.5-38.54a49.73,49.73,0,0,0-8-32.58c-4.47-6.93-10.69-13.32-19-19.53-12.23-9.14-27.71-17-44.11-25.23-32.93-16.61-70.26-35.45-73.62-61.87-.36-2.87-1.7-18.53,8-44.45,10.85-29.05,30.86-58.91,59.47-88.74,17.6-18.37,30.35-38.08,37.89-58.6a124.37,124.37,0,0,0,6.47-63.44c-7.5-46.47-41.64-87.93-96.14-116.76-70.18-37.11-113.07-76.73-131.13-121.11-8.23-20.22-17.86-36.54-29.44-49.89a120.6,120.6,0,0,0-39-30.08c-26.31-12.75-54-15.07-83.35-17.53-13.24-1.11-26.93-2.25-40.78-4.44A384.32,384.32,0,0,0,968.54,530c-30.12,0-60.7,2.64-90.27,5.18-29.74,2.56-57.82,5-85.58,5-57.53,0-123.68-9.35-178.1-78.67l-1.11-1.42-1.27-1.27c-9.52-9.52-19.26-19-28.68-28.22l-.06-.06-1-.92-1-.84c-48.26-39.41-69.25-60.15-77.45-76.52-6.82-13.63-5.57-27.6-1.83-60.7q.32-2.75.63-5.6c11.25-100.35,7.93-117.7,1.14-134.36C485,105,444.24,81.6,408.29,61c-37-21.22-66.12-38-94.21-38Z"/></g></g></svg>