<svg xmlns="http://www.w3.org/2000/svg" viewBox="0 0 1500 1500"><defs><style>.cls-1{fill:#8d99ae;}.cls-2{fill:#fff;}</style></defs><g id="Warstwa_2" data-name="Warstwa 2"><g id="Przedbórz"><path class="cls-1" d="M951.63,1477A51.16,51.16,0,0,1,937,1474.9c-20.46-6-31.16-21.76-39.75-34.43-1.15-1.68-2.29-3.37-3.45-5-14.77-21.09-26.33-28.8-39.7-37.72-11.68-7.79-24.92-16.62-39.84-34.61a95,95,0,0,1-6.3-8.41c-26.32-40.25-34.35-76.27-38.67-95.62-13.84-62.06-24.77-111.08-46-118.17a9.88,9.88,0,0,0-3.32-.63,35.06,35.06,0,0,0-5.63.79,89.52,89.52,0,0,1-17.47,1.81,106.44,106.44,0,0,1-16.5-1.38c-12.62-2-42.19-6.57-64.17-28.67-13.36-13.44-16.88-26.22-19.45-35.55-2.22-8.08-2.9-9.42-5.61-11.06a7.24,7.24,0,0,0-4.22-1.21c-3.24,0-8.07,1.23-14.18,2.78a222,222,0,0,1-46.3,7.56c-8.79.48-16,.8-22.59.8-19,0-31.89-2.76-44.59-9.52-20.45-10.87-30.54-37.07-48.84-84.63-14.43-37.49-22.37-58.14-18.13-78.28,2.65-12.58,7.52-20.83,11.44-27.45,4.08-6.92,6.13-10.39,5.66-17.41-1-15.23-8.82-28.44-14-31.21-23.74-12.83-36-27.29-38.58-45.52-2.25-15.93,3.61-31.76,9.82-48.52,2.17-5.85,4.41-11.9,6.46-18.28,10.61-33.1,22.85-48.39,38-61.15,21.56-18.22,42.71-19.61,59.7-20.73,14.75-1,23.5-1.89,31.61-9.33,4.63-4.25,5.15-6.18,6.91-25.78,1.2-13.4,3-33.65,8.53-64.15a469.08,469.08,0,0,1,18.93-73.08c6.29-18.7,8.89-26.44,5.54-43.52-.93-4.74-2.15-9.32-3.44-14.16-4-15.06-8.57-32.13-3.45-54.84,2.49-11,5.73-16.55,9.17-22.39a114.62,114.62,0,0,0,9-18.22c6.29-15.89,7.37-25.69,8.5-36.07s2.45-22.29,8.89-39.32c9.34-24.73,16.72-44.26,37.37-57.39,9.87-6.28,19-8.65,30.6-11.66a335.33,335.33,0,0,0,42.26-13.48l.17-.07a62.69,62.69,0,0,0,11.06-5.25c5-3.07,12.52-9,26.46-27.56C756,67.81,778.32,38,809.55,38c26.21,0,51.77,21.64,94.69,59.88,27.39,24.41,53.58,50.75,78.91,76.21q7.38,7.42,14.78,14.84c17.08,17.1,39,43,32.47,70.17-3.58,14.83-13.87,20.72-30.93,30.48-6.6,3.79-14.82,8.49-25.16,15-33.46,20.94-48.52,30.74-54.78,43.5-2.78,5.67-2.94,8.35-3.28,14.21-.41,7-1,16.61-6.44,32.84-5,14.84-10.08,23.32-15,31.51a158.06,158.06,0,0,0-9.94,18.64c-10.15,22.86-11.76,43-13.18,60.69-2.59,32.29,3.65,48.82,10.87,68,7,18.55,14.93,39.57,14.06,75-.36,14.72-3.77,44-10.56,102.21l-.26,2.23c-2.65,22.57-3.65,33.79,2.4,42.24,6.88,9.6,21.73,15.09,45.39,16.78,13.12.94,27.14,1.36,45.43,1.36,8.5,0,17.18-.09,25.58-.18s17.24-.18,25.9-.18c12.44,0,22.73.19,32.39.59,23.59,1,55.14,6.71,71.44,28.53,6.87,9.21,13.78,25.31,7.63,49.72-9.78,38.84-8.67,77.4-7.51,118.22.89,31,1.8,63-2.53,95l-.6,4.45-2.95,3.39q-7,8-13.93,15.94l-1.19,1.37c-28.86,42.09-39.74,90.82-34.27,153.29,1.3,14.8,3.08,28.47,4.8,41.68,6.13,47,11,84.22-16.32,110.66-9.64,9.34-30.19,16.2-79.86,32.78C974,1473.54,962.67,1477,951.63,1477Z"/><path class="cls-2" d="M809.55,53c20.23,0,43.26,19.15,84.71,56.08,32.26,28.75,62.48,59.85,93,90.45,21.62,21.64,32.31,40.27,28.5,56.05-2.93,12.17-14,14-49.46,36.25-34.58,21.64-52,32.81-60.28,49.6-8.38,17.06-1,20.69-10.47,48.86-7.77,23-15.36,28.42-24.43,48.86C860,464.35,858.25,486,856.75,504.74c-5.51,68.75,26.55,76.27,24.89,143.81-.35,14-3.73,43-10.48,100.9-2.85,24.48-5.14,40.93,4.86,54.88,10.64,14.86,30.86,21.18,56.51,23,15.45,1.11,31,1.4,46.5,1.4,17.15,0,34.32-.36,51.47-.36,10.6,0,21.2.14,31.78.57,37.58,1.55,76.33,15.2,65.15,59.61-18.12,71.94-.72,143.69-10.36,214.85l-15.68,17.94c-34.31,49.63-42.5,104.94-37.34,163.82,5.79,66.06,21.35,112.76-7,140.26-7.19,7-29.52,14.42-74.18,29.33-13.65,4.55-22.85,7.26-31.22,7.26a36.42,36.42,0,0,1-10.44-1.51c-17.52-5.14-25.69-20.21-35.12-33.67-30.11-43-50.61-37.49-80.28-73.29a79,79,0,0,1-5.29-7c-23.83-36.43-31.79-69.18-36.59-90.68-15.89-71.25-26.62-119.35-55.84-129.13a25,25,0,0,0-8.08-1.4c-6.45,0-12,2.6-23.1,2.6a91.49,91.49,0,0,1-14.19-1.2c-11.68-1.82-37.33-5.81-55.84-24.43-20.77-20.89-11.24-38.74-27.92-48.86a22.16,22.16,0,0,0-12-3.38c-12.52,0-28.05,8.55-61.29,10.36-8.09.44-15.26.78-21.78.78-14.73,0-26.18-1.71-37.55-7.76-15.2-8.08-24.3-31.09-41.88-76.78-13.78-35.8-20.77-54.06-17.45-69.8,4.83-22.94,18.8-28,17.39-49-1.27-18.7-10.66-37.39-21.8-43.4-49.35-26.66-28.67-52.33-15.14-94.54,9.65-30.08,20-43,33.36-54.27,34-28.77,65.8-6.64,91.77-30.47,15.63-14.35,6.77-24.8,20.06-98.31,14.4-79.67,31.77-84.66,24.43-122.15-4-20.62-12.76-37.21-7-62.82,3.66-16.23,8.63-16.11,17.45-38.39,13.57-34.3,5.51-44,17.47-75.61,8.79-23.27,15-39.58,31.39-50,15.43-9.81,29.64-7.92,70.27-23.83a78.42,78.42,0,0,0,13.64-6.5c8.11-5,17-13.26,30.59-31.34C768,76.77,787,53,809.55,53m0-30c-25.12,0-43.42,15.28-55,26.77-13.87,13.76-28.5,32.89-47.66,58.41-12.57,16.75-18.76,21.61-22.32,23.8A50,50,0,0,1,675.9,136l-.17.07A323.75,323.75,0,0,1,635.18,149c-12.36,3.21-23,6-34.89,13.52-24.86,15.81-33.85,39.58-43.36,64.74-7.1,18.81-8.51,31.66-9.76,43-1.11,10.16-2,18.17-7.53,32.19a99.65,99.65,0,0,1-7.95,16.13,82.53,82.53,0,0,0-10.88,26.7c-5.93,26.31-.65,46.1,3.6,62,1.22,4.59,2.38,8.93,3.21,13.18,2.58,13.18,1,18-5,35.86a482.23,482.23,0,0,0-19.47,75.18c-5.63,31.16-7.49,51.81-8.71,65.48-.56,6.17-1.18,13.09-1.83,15.8l-.28.27c-4.26,3.91-9,4.52-22.46,5.41-18.17,1.2-43.06,2.84-68.4,24.24-17.08,14.43-30.85,31.52-42.56,68-1.94,6.06-4.12,12-6.23,17.65-6.59,17.77-13.4,36.14-10.61,55.82,3.22,22.81,18.1,41.2,45.49,56.18,2,2.1,6.27,9.82,6.92,19.47.15,2.16.16,2.38-3.61,8.77-4.24,7.17-10,17-13.2,32-2.62,12.43-1.77,25.26,2.76,41.58,3.47,12.49,9,26.92,16.05,45.17,9.82,25.52,16.27,42,23.12,55.37,6.45,12.63,16,28.26,32.67,37.13,18.67,9.93,36.58,11.27,51.64,11.27,6.93,0,14.37-.33,23.41-.82,22.57-1.23,38-5.14,49.18-8,1.85-.47,3.91-1,5.75-1.43,0,.12.07.24.1.36,2.67,9.69,7.13,25.91,23.28,42.15,25.45,25.59,58.42,30.72,72.5,32.91a121,121,0,0,0,18.8,1.56,104,104,0,0,0,20.21-2.06l2.09-.38c1.82,1.08,7,5.55,13.72,23.3,7.58,20.19,14.13,49.58,21.72,83.6,4.2,18.84,13,58,40.76,100.57a105.83,105.83,0,0,0,7.3,9.77c16.32,19.69,30.53,29.16,43.07,37.52s22.58,15.06,35.74,33.84c1.07,1.54,2.16,3.14,3.31,4.84,9.42,13.88,22.32,32.9,48,40.41a66.2,66.2,0,0,0,18.87,2.72c13.29,0,25.78-3.82,40.72-8.81,53.46-17.85,73.47-24.53,85.55-36.23,15.6-15.11,23.9-34.8,25.38-60.18,1.12-19.15-1.54-39.56-4.62-63.2-1.7-13.06-3.46-26.56-4.73-41-5.12-58.45,4.8-103.88,31.21-142.78l14.54-16.65,5.91-6.78,1.21-8.91c4.49-33.17,3.56-65.83,2.66-97.42-1.14-39.75-2.21-77.3,7.06-114.12,7.59-30.14-1.34-50.55-10.17-62.37-15.69-21-44.33-32.95-82.84-34.54-9.87-.41-20.36-.6-33-.6-8.73,0-17.53.09-26,.18-8.36.09-17,.18-25.42.18-17.92,0-31.61-.41-44.37-1.32-17.88-1.28-30.36-5.13-34.25-10.56-2.8-3.9-1.71-14.61.29-31.76l.26-2.17c7.06-60.58,10.29-88.23,10.67-103.64.94-38.38-7.54-60.86-15-80.7-6.85-18.17-12.27-32.52-10-61.46,1.39-17.35,2.83-35.29,11.94-55.81a143.07,143.07,0,0,1,9.11-17c5.06-8.46,10.79-18.05,16.32-34.41,6.13-18.14,6.78-29.36,7.21-36.78.3-5.2.32-5.51,1.77-8.47,4.43-9,19.94-19,49.27-37.38,10.08-6.32,18.16-10.94,24.65-14.66,9-5.13,15.45-8.84,21.12-13.49A47.8,47.8,0,0,0,1045,262.62c3.6-14.94,1.14-30.69-7.32-46.81-6.19-11.8-15.72-24.07-29.12-37.48L993.76,163.5c-25.48-25.62-51.82-52.11-79.54-76.82C868.57,46,841.21,23,809.55,23Z"/></g></g></svg>