<svg xmlns="http://www.w3.org/2000/svg" viewBox="0 0 1494.83 1494.83"><defs><style>.cls-1{fill:#8d99ae;}.cls-2{fill:#fff;}</style></defs><g id="Warstwa_2" data-name="Warstwa 2"><g id="RadomskoWiielkie"><path class="cls-1" d="M949.38,1322c-15.24,0-31.48-2.89-52-6.55-4.24-.75-8.67-1.54-13.34-2.35h-.18l-1.44-.28c-1.83-.36-45.13-8.83-86.29-12.09-23.12-1.83-42.3-2.11-60.85-2.37-47.68-.69-88.85-1.28-172.72-26.52l0,0c-3.43-.9-10-3-24-7.87-13.55-4.7-34.84-12.43-59.33-22.61-63.23-26.26-115.25-54.83-154.6-84.9a324.81,324.81,0,0,1-26.78-23c-24.23-23.3-57.42-55.19-68.14-101.78-4.75-20.62-7-53.65,9.19-93.86l.05-.13c11.32-27.37,12.93-49.48,4.81-65.71-7.22-14.44-19.32-19.91-43.81-30-15.5-6.36-34.79-14.27-56.43-27.68C84.17,777.59,50.66,734.78,41,683.43c-8.23-43.74.07-93.63,26.91-161.76,29.61-75.19,71.27-110.2,131.11-110.2,34.45,0,73,11.77,109.58,24.5,32.95,11.47,61.62,17.28,85.22,17.28,22.19,0,39.24-5.38,48-15.16s18.75-34.47,16.6-96.92c0-1.47-.11-3-.18-4.5-.69-15.85-1.55-35.57,11.06-55.09,13.2-20.43,33.48-28.33,41.11-31.3,72.11-28.09,142-41.14,155.87-43.18l0-.1c46.45-7.53,81-15.4,108.8-21.72,31.82-7.24,54.8-12.47,75.63-12.47a103.41,103.41,0,0,1,45,9.92c2.18,1,5,2.37,8.47,4.1,4.71,2.32,10.57,5.2,18.11,8.76,10.78,5.1,19,8.79,22.57,10.37l1.53.68c24.24,10.93,47.92,28.55,70.82,45.58,55.38,41.19,67.68,50.75,68.18,51.13,108.84,84.74,110.76,88.78,116.43,100.74,26.82,56.55,8.45,124.48,7.65,127.34a271.91,271.91,0,0,1-10.74,30.16c-7.69,19-11.5,29.54-7,41.85,4.76,13,16.57,21.6,29.08,30.7,20.14,14.65,39.82,19.5,54.19,23,12.26,3,18.29,3.41,30.3,4.19,9.52.62,22.56,1.46,44.24,4,50.8,5.86,63.89,10.75,75.61,20.2,17.08,13.77,28,32.23,30.9,52,3.26,22.65-4.86,40.31-9.71,50.85-8.65,18.81-20.17,30.13-28.59,38.4-8.66,8.51-26.69,26.22-56.17,37.29a149.3,149.3,0,0,1-52.69,9.5c-1,0-2,0-3,0a488,488,0,0,0-114.46,24.62c-45.34,15.73-68,24.28-86.88,46.49-5,5.9-14.36,16.88-30.77,87.07-12.62,54-20.84,108.62-26.59,150.2a305.77,305.77,0,0,0-2.31,33.28c-.77,24.65-1.49,47.94-19,69.84a101.79,101.79,0,0,1-36.83,28.55A91.84,91.84,0,0,1,949.38,1322Z"/><path class="cls-2" d="M850.73,187.81a88.31,88.31,0,0,1,38.7,8.53c4.75,2.2,13.17,6.52,26.46,12.81,12.84,6.08,22,10.12,24.35,11.16,22.27,10,44.57,26.49,68,43.94,55.88,41.57,67.91,50.94,67.91,50.94C1180,396,1184,401.57,1188.29,410.52c23.62,49.81,8.44,110.82,6.75,116.9-9.4,33.87-27.13,54.51-17.36,81.18,6.33,17.29,20.82,27.83,34.34,37.67,22.06,16.06,43.36,21.52,59.42,25.47,23.85,5.87,27.06,2.79,76.41,8.49,49.59,5.72,59.59,10.26,67.91,17,4.41,3.55,22,18.15,25.47,42.44,2.63,18.27-4,32.73-8.49,42.45-7.35,16-17.06,25.7-25.47,34-8.62,8.46-24.63,24.07-50.93,34a134.72,134.72,0,0,1-47.42,8.54c-1.21,0-2.39,0-3.52,0A501.65,501.65,0,0,0,1186.55,884c-44.56,15.46-71.44,25.16-93.38,50.94-7.85,9.22-17.63,23.51-34,93.38-12,51.51-20.22,103.73-26.84,151.55-5.52,39.9,2.84,69.53-18.18,95.81a87.46,87.46,0,0,1-31.38,24.29,76.92,76.92,0,0,1-33.43,7.08c-17.15,0-36.75-4.2-64.11-8.9,0,0-45.23-8.94-88-12.32-82.26-6.51-115.63,6.24-230.42-28.3,0,0-140.77-42.36-233.18-113a308,308,0,0,1-25.49-21.9c-23.89-23-54.2-52.1-63.93-94.33-3-13-7.92-44.17,8.49-84.9,9.26-22.39,17.14-52.62,4.37-78.15-16.57-33.11-53.31-31.18-105.76-63.68-116.7-72.3-115-158.64-69.47-274.39,29.83-75.74,68.64-100.7,117.16-100.7,30.88,0,65.69,10.1,104.64,23.66,36.84,12.83,66.68,18.12,90.16,18.12,29.08,0,48.4-8.12,59.18-20.13,23.25-25.86,21.07-89.29,20.44-107.46-.53-15.47-2.61-33.74,8.49-50.94,10.35-16,26.67-22.63,34-25.47,78.65-30.64,152.81-42.44,152.81-42.44,99.64-16.17,145.85-34,182-34m0-30c-22.51,0-46.19,5.39-79,12.84-27.57,6.28-61.89,14.09-107.87,21.55h0c-2.5.37-6.53,1.09-13.72,2.48-7.75,1.5-20.18,4-35.36,7.68-26.8,6.41-67.6,17.5-109.81,33.94-8,3.13-32.44,12.64-48.27,37.15-15.2,23.53-14.14,47.81-13.45,63.87.07,1.48.13,2.93.18,4.37.28,8.19.94,27.37-1.12,46.63-3,28.2-9.68,37.55-11.65,39.75-5.73,6.37-19.51,10.18-36.87,10.18-21.92,0-48.93-5.53-80.29-16.45-37.8-13.16-77.83-25.33-114.51-25.33-32.93,0-60.54,9.35-84.41,28.58C90.2,444.73,70.36,474.53,54,516.17,26,587.09,17.49,639.52,26.26,686.2,36.74,741.92,72.48,788,135.54,827.06c22.7,14.06,42.63,22.24,58.64,28.81,23.47,9.63,31.45,13.52,36.09,22.79,7.58,15.16,1.32,37.34-5.26,53.27l0,.13-.05.12C207.25,976,209.78,1012.29,215,1035c11.73,50.94,46.78,84.63,72.37,109.22a338,338,0,0,0,28.06,24.12c40.38,30.86,93.53,60.07,158,86.84,24.84,10.31,46.44,18.16,60.18,22.92,6.2,2.15,12.37,4.21,17.85,6,2.86.92,5,1.61,6.77,2.11v0c85.87,25.83,130,26.47,176.83,27.14,18.31.27,37.24.54,59.87,2.33,40.29,3.19,82.79,11.5,84.58,11.86l2.87.56h.35c4.16.72,8.14,1.43,12,2.12C916,1334,932.82,1337,949.38,1337a106.23,106.23,0,0,0,46-9.82,116.74,116.74,0,0,0,42.28-32.81c20.65-25.81,21.49-52.72,22.31-78.74.32-10.18.64-20.71,2.16-31.7,5.71-41.25,13.87-95.46,26.34-148.83,15.58-66.66,24-76.55,27.59-80.77,16.37-19.23,37.64-27.21,80.38-42a473,473,0,0,1,110.12-23.78l2.41,0a164.33,164.33,0,0,0,58-10.45c32.45-12.19,52-31.41,61.42-40.64,8.72-8.57,21.89-21.52,31.69-42.83,5.19-11.26,14.83-32.23,10.93-59.26-3.39-23.51-16.29-45.35-36.33-61.52-15.69-12.65-33.6-17.69-83.3-23.42-22-2.55-35.31-3.41-45-4-11.82-.76-16.71-1.08-27.69-3.78-13.89-3.42-31.18-7.68-48.94-20.6-11.07-8-20.63-15-23.82-23.73-2.51-6.84-.26-13.58,6.81-31.07A288.44,288.44,0,0,0,1224,535.45a238.09,238.09,0,0,0,7.17-48.66c1.6-33.76-3.69-63.75-15.73-89.13-4.87-10.28-10.74-17.12-26.15-30.51s-43.6-35.91-94.62-75.63l0,0c-.95-.78-1.94-1.53-3-2.31-2.7-2.06-6.19-4.71-10.39-7.87-9.15-6.9-26.13-19.65-55.07-41.18-23.54-17.51-47.88-35.61-73.61-47.21l-1.58-.71c-3.49-1.56-11.64-5.2-22.27-10.23-7.42-3.51-13.23-6.36-17.9-8.66-3.6-1.77-6.44-3.17-8.78-4.25a117.89,117.89,0,0,0-51.31-11.31Z"/></g></g></svg>