<svg xmlns="http://www.w3.org/2000/svg" viewBox="0 0 1494.83 1494.83"><defs><style>.cls-1{fill:#8d99ae;}.cls-2{fill:#fff;}</style></defs><g id="Warstwa_2" data-name="Warstwa 2"><g id="RadomskoMniejsze"><path class="cls-1" d="M1237.83,560.75c-23.65,0-43.07-8.12-53.28-22.29-9.29-12.88-7.32-24.91-5.22-37.64,1.58-9.65,3.56-21.66,2.39-40-1-15.16-2.43-38.07-15-59.88-6.27-10.87-20.2-23-48-47.29-5.25-4.58-10.4-9.3-15.38-13.86-9.87-9-19.19-17.58-29.27-25.25-1.67-1.27-3.23-2.44-4.7-3.54-10.38-7.78-18.58-13.92-23-25.92-8.19-22.27,4.22-43.82,12.43-58.08,37.79-65.64,53.44-92.81,73.45-99.91a83.67,83.67,0,0,1,28-4.67c35.26,0,71.45,20.64,91.72,38.3,4.52,3.94,7.64,7.22,12.38,12.18,5.92,6.21,14.87,15.59,33.63,33.78,17.81,17.28,23,21.66,30.9,26a127.13,127.13,0,0,0,12.06,5.77,159.12,159.12,0,0,1,22.61,11.62c15.48,9.58,23.24,14.39,27.81,22.29,5.61,9.72,5.42,20.91-.59,33.24-4.1,8.44-10.46,16.87-17.83,26.62-14.6,19.34-32.78,43.4-36.45,74.3-1.46,12.31,0,20.41,1.48,29,2.13,12.06,4.54,25.73-2,47.39-3.54,11.72-14.32,47.37-49.45,66A105.55,105.55,0,0,1,1237.83,560.75Z"/><path class="cls-2" d="M1160.26,137.42c32.32,0,65.07,20,81.87,34.61,9.11,7.94,11.63,12.65,45.41,45.42,18.4,17.84,24.47,23.06,34.07,28.38,11.91,6.62,19,7.72,34.06,17,13.41,8.29,20.07,12.47,22.71,17,14.15,24.51-49,59.11-56.77,124.89-3.91,32.91,9.86,41.17,0,73.8-3.16,10.45-12.52,41.39-42.13,57.12a91,91,0,0,1-41.65,10c-17.34,0-33.26-5.17-41.12-16.06-10.55-14.64,2.73-26.77,0-69.82-1-16.16-2.66-41.57-17-66.43-7.52-13-22-25.71-51.09-51.1-15.15-13.23-29.41-27.55-45.42-39.74-12.65-9.63-19.38-13.65-22.71-22.7-5.58-15.19,3.25-31.34,11.36-45.42,33.78-58.67,50.67-88,65.46-93.25a68.74,68.74,0,0,1,23-3.81m0-30v0a98.93,98.93,0,0,0-33,5.53c-17.16,6.09-29.6,21.93-40.49,38.14s-23.49,38.1-41,68.42c-9,15.67-24.12,41.89-13.51,70.74,5.94,16.17,16.7,24.23,28.09,32.76l4.6,3.46c9.52,7.26,18.6,15.57,28.21,24.37,5,4.63,10.27,9.41,15.64,14.1,24.83,21.69,39.82,34.79,44.85,43.5,10.84,18.77,12.12,38.75,13,53.34,1.06,16.63-.69,27.24-2.23,36.61-2.26,13.77-5.08,30.9,7.86,48.84,13.07,18.13,36.93,28.52,65.45,28.52a120.74,120.74,0,0,0,55.72-13.55c17.63-9.36,32-23.45,42.81-41.89a148.08,148.08,0,0,0,14-33c7.59-25.09,4.73-41.31,2.43-54.34-1.43-8.1-2.56-14.49-1.35-24.61,3.19-26.87,19.3-48.2,33.52-67,7.51-9.95,14.61-19.34,19.35-29.1,10.36-21.28,5.76-37.47.09-47.3-6.45-11.17-16.41-17.34-32.9-27.54a174.17,174.17,0,0,0-24.52-12.62,115.61,115.61,0,0,1-10.77-5.13c-6.1-3.39-10.24-6.72-27.74-23.69-18.55-18-27.38-27.25-33.22-33.37a185.16,185.16,0,0,0-13.37-13.13c-23.3-20.3-62.22-42-101.57-42Z"/></g><g id="RadomskoWiększe"><path class="cls-1" d="M321.32,1372.4c-19.93,0-35.86-9.81-47.36-29.15-11.09-18.66-18.3-46.88-22-86.27-2.58-27.25-28.82-35.83-71.74-46.73-15.41-3.91-31.35-8-45.21-13.91-56.78-24.4-87.95-53.28-95.31-88.28C29.6,1060.17,66.83,1017.29,94,986c1-1.1,24.09-27.4,77.27-58.88,48.23-28.55,132-67.36,257.42-90.07a129.52,129.52,0,0,1,23.45-2.42c14.5,0,27.34,3.39,38.17,10.1,11.09,6.85,16.51,15,22.25,23.55,2.85,4.27,5.79,8.67,9.95,13.89,10.35,13,21.14,21,42.63,37,64,47.75,129.35,70.65,132.09,71.6h0c13.83,4.76,16.92,5.16,34,7.36,18.1,2.33,51.78,6.66,128.24,20.41,20.81,3.74,42.63,5.48,63.74,7.17,14.14,1.12,28.76,2.29,43.22,4l.41,0a198.56,198.56,0,0,0,24.8,1.86c19.13,0,34.6-4.21,47.3-12.87,1.64-1.12,2.73-1.94,3.08-2.21,17.56-15.63,20.9-37.71,27.55-81.56,1.24-8.15,2.64-17.4,4.24-27.2,4.12-25.19,8.78-44.27,18.06-82.3,8.9-36.46,13.53-51.43,27-64.11,9.84-9.28,16.38-11.16,47.85-20.21,5.84-1.68,12.65-3.64,20.64-6,29.53-8.62,44.35-13,53.76-18.46a123.42,123.42,0,0,0,13.42-9.21c6-4.55,14.29-10.78,31-21.59,3-1.93,5.43-3.48,7.79-5,4.23-2.69,8.23-5.23,14.68-9.55,11.35-7.59,17.08-11.83,20.51-14.37,4-2.93,6.34-4.69,10.51-6.41a45.33,45.33,0,0,1,17.39-3.3c23.81,0,50.43,16.63,66.24,33.1,27.88,29,29.88,67.2,33.51,136.46,2.11,40.25-1.24,51.86-9.07,61.38-11.9,14.48-27.29,16-45.1,17.84-13.36,1.35-30,3-53.08,9.73-31,9-42.72,13.57-52.06,20.39-12.94,9.47-21.65,20.68-25.37,25.46a144.56,144.56,0,0,0-20.5,35.79c-3.33,8.87-3.64,12.6-4.25,20.05-.66,8.06-1.57,19.09-6.52,40.47-1.43,6.17-3.88,17.9-8.75,41.27a142.28,142.28,0,0,0-2.44,17.8,93.41,93.41,0,0,0,.11,14.86l.08,1c3.12,44.22-11.91,79.33-12.56,80.8a56.52,56.52,0,0,1-6.92,12.2c-2,2.75-4.69,6.52-10.72,17.44a263.07,263.07,0,0,0-12.69,25.75,138.39,138.39,0,0,1-10.39,20.29c-12.44,20-25.31,40.73-49,46.39a41,41,0,0,1-9.63,1.17h0c-9.06,0-17.17-3.08-30.61-8.2-5.08-1.93-10.84-4.13-18-6.7-8-2.87-16.34-5.54-24.41-8.12-9.29-3-18.9-6-28.36-9.54-17-6.26-34.26-12.83-51-19.18-88.71-33.71-180.44-68.57-254.87-68.57a215.62,215.62,0,0,0-23.6,1.25c-84.42,9.36-167.26,45.58-246.2,107.67l-1.14.89-1.29.67c-11.26,5.77-23.23,13.23-34.81,20.44C374.43,1355.54,347.34,1372.4,321.32,1372.4Z"/><path class="cls-2" d="M1356.47,662.39c18.87,0,41.63,14.12,55.42,28.49,24,25,25.8,59,29.35,126.86,2,38.63-1.53,46-5.67,51.06-14.39,17.49-36,6.81-90.78,22.69-31,9-44.94,14.07-56.73,22.69-14.36,10.5-23.9,22.63-28.37,28.37A157.59,157.59,0,0,0,1237,982.26c-8.07,21.48-1.86,21.48-11.34,62.41-1.47,6.33-3.92,18.09-8.82,41.6a155.29,155.29,0,0,0-2.71,19.73,109.16,109.16,0,0,0,.18,18.1c2.9,41.22-11.35,73.75-11.35,73.75-4.71,10.75-4.71,6.11-17,28.37-14.25,25.77-13.29,30.25-22.69,45.38-11.52,18.54-22,35.49-39.71,39.72a26.25,26.25,0,0,1-6.15.76c-8.84,0-18.13-4.89-43.53-14-17.42-6.25-35.3-11.21-52.66-17.61-108-39.85-219.56-88.68-311.05-88.68a229.73,229.73,0,0,0-25.25,1.34c-85.73,9.5-170.51,45.26-253.83,110.79-37.66,19.34-78.08,53.5-109.75,53.5-26.65,0-47.1-24.21-54.46-101.84-5.23-55.11-80.19-53.33-126-73C89,1160.26,60.62,1134.82,54.34,1105c-8.34-39.7,23.9-77.94,51-109.16,0,0,87.56-100.83,326-144a116.26,116.26,0,0,1,20.78-2.18c9.8,0,20.49,1.8,30.28,7.85,12.74,7.89,15.27,17.62,28.37,34,11.47,14.39,22.76,22.85,45.38,39.71,67,49.95,136.16,73.76,136.16,73.76,31.5,10.84,16.36,1.73,164.53,28.36,35.56,6.4,71.93,7,107.79,11.35a215.71,215.71,0,0,0,27,2c17.17,0,37.53-3,55.75-15.47,2.29-1.57,4-2.84,4.39-3.22,25.78-22.77,26.57-55,36.84-117.73,4-24.62,8.62-43.48,17.83-81.19,9.06-37.15,12.87-47.47,22.69-56.73,8.6-8.11,13.69-8.46,62.41-22.69,30.75-9,46.12-13.47,57.13-19.92,13.5-7.9,15-11.77,45-31.14,8.44-5.46,12.53-7.88,22.67-14.66,23.16-15.49,23.47-17.35,28.39-19.38a30.51,30.51,0,0,1,11.68-2.17m0-30a60.28,60.28,0,0,0-23.11,4.43c-5.88,2.43-9.51,5.11-13.71,8.22-3.54,2.62-8.88,6.57-19.93,14-6.31,4.23-10.06,6.61-14.4,9.37-2.38,1.51-4.84,3.07-7.88,5-17.16,11.1-25.67,17.52-31.88,22.2a107.47,107.47,0,0,1-12,8.24c-7.81,4.58-22.93,9-50.37,17-8,2.32-14.68,4.25-20.6,6-31.88,9.17-41.51,11.93-54,23.7-16.33,15.4-21.8,32.71-31.26,71.45-9.37,38.41-14.08,57.69-18.29,83.46-1.62,9.89-3,19.18-4.27,27.37-6.45,42.58-9.63,60.65-22.29,72.24-.4.3-1.08.79-2,1.39-10.13,6.91-22.84,10.26-38.85,10.26a186.21,186.21,0,0,1-23-1.75l-.41-.05c-14.77-1.8-29.55-3-43.84-4.12-21.7-1.73-42.19-3.36-62.27-7-76.83-13.82-110.75-18.18-129-20.53-16.83-2.17-18.65-2.4-31-6.63l-.11,0c-.65-.22-65.88-23.11-128-69.45-22.83-17-31.17-23.46-39.87-34.36-3.77-4.73-6.53-8.87-9.21-12.87-6.08-9.1-13-19.41-26.82-28C485,823.75,469.5,819.6,452.17,819.6A146,146,0,0,0,426,822.26C180.15,866.8,86.58,971.68,82.71,976.12c-15.78,18.18-30.89,36.16-42.28,56.34a137.09,137.09,0,0,0-14.65,36.22,97,97,0,0,0-.8,42.46c8.44,40.13,42.48,72.51,104.06,99,15,6.42,31.47,10.62,47.45,14.67,43.34,11,59,17.74,60.5,33.61,3.95,41.64,11.83,71.91,24.08,92.52,17.92,30.15,42.66,36.48,60.25,36.48,30.31,0,60.51-18.8,89.72-37,11.84-7.37,23-14.33,33.73-19.83l2.58-1.32,2.27-1.79c76.71-60.33,157-95.51,238.58-104.55a200.43,200.43,0,0,1,21.95-1.16c71.67,0,162.09,34.36,249.54,67.59,16.76,6.37,34.1,13,51.13,19.24,9.76,3.6,19.53,6.72,29,9.74,8.32,2.66,16.17,5.18,23.91,8,7,2.52,12.72,4.69,17.74,6.6,14.53,5.53,24.12,9.18,35.94,9.18a56.2,56.2,0,0,0,13.12-1.58c14.14-3.39,26.45-11.16,37.63-23.77,8-9,14.39-19.31,20.59-29.29a152,152,0,0,0,11.4-22.21,251.38,251.38,0,0,1,12.06-24.49c5.61-10.14,8-13.5,9.79-16a70.84,70.84,0,0,0,8.46-14.9l2.52-5.76v-.67a204.55,204.55,0,0,0,11.27-81.47c0-.33,0-.72-.09-1.18a79.14,79.14,0,0,1-.1-12.54,124.84,124.84,0,0,1,2.17-15.87l0-.21c4.82-23.14,7.24-34.76,8.63-40.75,5.2-22.44,6.16-34.1,6.86-42.62.58-7,.75-9.1,3.34-16A128.3,128.3,0,0,1,1283.39,961c3.33-4.29,11.13-14.33,22.38-22.56,7.68-5.61,18.3-9.67,47.37-18.09,21.79-6.32,37.67-7.93,50.42-9.22,19.35-2,39.35-4,55.18-23.24,11.68-14.2,14.59-31,12.46-71.68-1.87-35.7-3.22-61.5-7.51-83.65-5.2-26.86-14.5-46.11-30.16-62.42-16.7-17.39-46.9-37.71-77.06-37.71Z"/></g></g></svg>