<svg xmlns="http://www.w3.org/2000/svg" viewBox="0 0 1494.83 1494.83"><defs><style>.cls-1{fill:#8d99ae;}.cls-2{fill:#fff;}</style></defs><g id="Warstwa_2" data-name="Warstwa 2"><g id="Zytno"><path class="cls-1" d="M697.47,1359.67c-42.19,0-81.87-42.68-89.39-51.24a128.11,128.11,0,0,1-27-49.59,1149,1149,0,0,0-66.6-144c-24.85-45-33.66-48.28-37.42-49.68a30.83,30.83,0,0,0-11.13-2c-5.37,0-11.31,1.21-18.19,2.61-9.64,2-21.65,4.41-36.83,4.41l-3.13,0c-37.74-.82-65.47-16.14-83.82-26.28-69.29-38.28-110.13-114.7-170.32-261.11A124.92,124.92,0,0,0,139,757.14c-16.39-22.43-33.84-31.16-50.71-39.62-10.78-5.4-21-10.49-30.05-18.62C40,682.56,25.86,652.39,53.4,465.1,62.16,405.55,68.78,374,73.16,353c5.32-25.38,7.52-35.89,7.64-64.93.08-19.63-.88-35.43-1.72-49.36-2-32.95-3.32-54.72,14.6-75.25,16.64-19.07,42.55-28.34,79.21-28.34,27.67,0,57.62,5.35,81.69,9.65,54.21,9.69,113.08,31,175,63.33,12.15,6.35,22,11.86,30.67,16.72,24.36,13.62,36.58,20.46,58.83,22.62,4.18.41,8.45.62,12.69.62,24.78,0,50.8-6.78,81.89-21.33,31.62-14.79,58.85-22,83.26-22,28.57,0,52.74,10.13,71.85,30.11C787,254,800.48,281.6,809.89,319.24c11.66,46.66,23.38,46.66,27.79,46.66,7.18,0,21.31-4.49,47.82-25.87C924,309,962.16,293.28,999,293.28c52.8,0,102.78,30.92,152.77,94.54,25.9,32.95,69.92,72.22,132.61,72.22,3.54,0,7.15-.12,10.73-.37,7.25-.51,13.12-.75,18.47-.75,20.2,0,35.74,3.41,57.34,12.59,20,8.49,68,33.44,82,81.57,23.13,79.18-64.09,166.91-92.76,195.73-3.65,3.68-7.06,6.64-10.07,9.25-6.16,5.35-10.61,9.22-15.55,17.39-.65,1.07-1.29,2.16-1.94,3.27-5.5,9.34-12.34,21-26.52,29.23a40.24,40.24,0,0,1-13.72,4.77,55.7,55.7,0,0,1-9.35.81c-10.86,0-19.63-3.2-27.38-6-6.21-2.26-11.58-4.22-17.19-4.22a27.09,27.09,0,0,0-7.49,1.11c-9.08,2.6-15.24,8.9-26.19,21.67-42.65,49.71-68.71,101.88-77.45,155l-.29,1.85c-2,12.47-5.74,35.67-22.69,58.2a115.7,115.7,0,0,1-33.43,29.67c-57,34.55-144.67,93-158.44,102.32-50.59,34.24-90.54,61.27-129.76,111.61-7.15,9.18-13.34,18-18.8,25.71-18.17,25.77-32.51,46.13-60.45,48.88A59.72,59.72,0,0,1,697.47,1359.67Z"/><path class="cls-2" d="M172.89,150.16c26.33,0,54.83,5.09,79.05,9.42,77.83,13.91,146.55,49.26,170.67,61.86,47.54,24.83,61.09,37.68,95,41q7.08.69,14.14.69c28.75,0,57.5-8.35,88.25-22.74,29.15-13.64,54.74-20.57,76.9-20.57,48.8,0,81.06,33.57,98.44,103.09,9.33,37.33,21.19,58,42.34,58,14.2,0,32.6-9.32,57.24-29.19,36.45-29.4,70.94-43.43,104.06-43.43,49.3,0,95.61,31.06,141,88.81,36.5,46.44,85.46,78,144.4,78q5.84,0,11.78-.41c6.35-.45,12.06-.71,17.42-.71,17.6,0,31.35,2.84,51.47,11.39,7,3,59.93,25.47,73.51,72,20.65,70.68-62.07,153.87-89,181-10.49,10.55-18.87,14.65-27.82,29.45-5.62,9.29-10.89,20.15-23.16,27.3a25.59,25.59,0,0,1-8.72,3,39.77,39.77,0,0,1-6.81.59c-16.44,0-28.09-10.23-44.57-10.23a42,42,0,0,0-11.62,1.69c-13.8,4-22.54,13.61-33.44,26.32-15,17.45-67,78.11-80.87,162.39-1.86,11.34-4.62,32.8-20.17,53.46a100.67,100.67,0,0,1-29.29,25.9c-56.39,34.21-143.85,92.44-159,102.69-50.15,33.94-92.5,62.59-133.18,114.81-29.74,38.16-40.83,66.12-68.89,68.89-1.51.15-3,.22-4.55.22-37.29,0-75.69-43.39-78.12-46.15a112.94,112.94,0,0,1-24-44.3,1150.93,1150.93,0,0,0-67.76-146.64c-25.69-46.51-36.63-53.24-45.3-56.48a45.79,45.79,0,0,0-16.38-3c-15.52,0-30.48,7-55,7l-2.8,0c-34-.74-59.1-14.58-76.89-24.41C265.36,994.34,225.82,918.9,167.49,777a138.86,138.86,0,0,0-16.38-28.75c-29.12-39.82-62-41.87-82.87-60.56-11.57-10.35-27.56-33,0-220.44C87.31,337.64,95.57,344.34,95.8,288.17c.27-65.39-10.86-91.84,9.18-114.81,15.42-17.68,40.49-23.2,67.91-23.2m0-30c-18.09,0-33.57,2.06-47.31,6.31-17.71,5.47-32.25,14.61-43.2,27.16-10.47,12-16.54,26-18.56,42.72-1.55,13-.74,26.35.29,43.31.83,13.7,1.77,29.24,1.69,48.39-.12,27.51-2.08,36.88-7.32,61.91-4.42,21.09-11.1,53-19.92,113C26,548.16,21.14,608,23.63,645.87c2.1,31.85,9.23,50.45,24.61,64.21,10.58,9.46,22.15,15.25,33.33,20.86,16,8,31.07,15.56,45.32,35a110,110,0,0,1,12.86,22.45c25,60.87,52.19,123.69,81.25,170.76,28.72,46.5,59.13,77.57,95.69,97.77,19.64,10.85,49.31,27.25,90.75,28.14,1.15,0,2.31,0,3.45,0,16.69,0,29.52-2.61,39.83-4.71,6.08-1.24,11.34-2.31,15.19-2.31a15.79,15.79,0,0,1,5.89,1.08,2.67,2.67,0,0,1,.54.22c.32.17,8.07,4.78,29,42.65a1138.92,1138.92,0,0,1,65.47,141.44,143.09,143.09,0,0,0,30,54.81,225.31,225.31,0,0,0,30.24,28.09c24.4,18.74,48.09,28.25,70.41,28.25a74.44,74.44,0,0,0,7.5-.37c16.6-1.64,31.06-8.59,44.21-21.26,9.71-9.35,17.73-20.73,27-33.91,5.62-8,11.44-16.23,18.37-25.13,37.77-48.47,76.85-74.92,126.33-108.41,13.73-9.28,101.1-67.52,157.75-101.88l.07,0a129.88,129.88,0,0,0,37.63-33.47c19.19-25.49,23.46-52.06,25.51-64.84.11-.62.2-1.22.3-1.8,8.28-50.42,33.19-100.12,74-147.72,9.72-11.34,14-15.61,18.93-17a12,12,0,0,1,3.36-.53c3,0,7,1.47,12.06,3.31,8.47,3.08,19,6.92,32.51,6.92a71.15,71.15,0,0,0,11.89-1,55.22,55.22,0,0,0,18.73-6.6c17.57-10.23,26.19-24.88,31.9-34.58.62-1.06,1.23-2.1,1.85-3.12,3.72-6.15,6.85-8.88,12.55-13.83,3.2-2.78,6.83-5.93,10.87-10,14-14.06,43.06-43.31,66.22-78.93,31.47-48.41,41.66-92.68,30.3-131.59-7.57-25.91-24.41-48.76-50-67.92a198.49,198.49,0,0,0-40.53-23.25c-23.34-9.92-41.06-13.78-63.2-13.78-5.71,0-11.91.25-19.52.78-3.23.23-6.49.34-9.68.34-56.66,0-97-36.15-120.81-66.49-25.39-32.31-50.4-56.12-76.44-72.79-28.49-18.23-58.15-27.48-88.14-27.48-20.55,0-41.51,4.37-62.27,13-20,8.28-40.37,20.76-60.62,37.09C851.73,348,841,350.54,838.32,350.85c-1.83-1.84-7.37-9.22-13.88-35.24-10.05-40.24-24.73-70-44.85-91.08-22.05-23.05-49.87-34.74-82.69-34.74-26.65,0-56,7.65-89.61,23.4-29,13.58-53,19.91-75.54,19.91-3.76,0-7.54-.19-11.24-.55-19.12-1.85-29-7.39-52.95-20.79-8.77-4.9-18.71-10.47-31.06-16.91-10.58-5.53-35.37-18.48-67.8-31.65-38.62-15.68-76.13-26.83-111.48-33.15-24.65-4.41-55.34-9.89-84.33-9.89Z"/></g></g></svg>